<svg xmlns="http://www.w3.org/2000/svg" width="300" height="50" viewBox="0 0 300 50">
	<defs>
		<style>.a{fill:none;}.a,.b{stroke:#523;stroke-miterlimit:10;}.b{fill:#bb9;}</style>
	</defs>
	<path class="a" d="M296,43.89v-30A3.87,3.87,0,0,0,292.11,10H11.76V6.11A3.87,3.87,0,0,0,4,6.11v30A3.87,3.87,0,0,0,7.89,40H288.24v3.87"/>
	<path class="a" d="M288.24,40h3.87"/>
	<path class="a" d="M7.89,32.28A3.87,3.87,0,0,0,4,36.15"/>
	<line class="a" x1="8.24" y1="34.41" x2="8.24" y2="8.24"/>
	<path class="b" d="M292.11,40a3.87,3.87,0,1,1-3.87,3.87,1.94,1.94,0,0,1,3.87,0Z"/>
	<path class="b" d="M7.89,36.15a1.94,1.94,0,1,0,3.87,0,3.87,3.87,0,0,0-3.87-3.87Z"/>
</svg>