<?xml version="1.0" encoding="UTF-8" standalone="no"?><svg xmlns:rdf="http://www.w3.org/1999/02/22-rdf-syntax-ns#" xmlns:svg="http://www.w3.org/2000/svg" xmlns="http://www.w3.org/2000/svg" width="540" height="120" viewBox="0 0 540 120">
<style type="text/css">.st0{display:none;} .st1{display:inline;fill:#0B0E1D;} .st2{fill:#2244AA;} .st3{fill:#FFFFFF;} .st4{fill:#EE2233;}</style>
<path class="st2" d="m 170.4,115.65 c -4.5,0 -8.2,-3.7 -8.2,-8.2 V 78.750002 h -10 c -2.4,5.2 -8.8,12.8 -20.1,12.8 -11.3,0 -17.7,-7.6 -20.1,-12.8 H 17.4 c -4.5,0 -8.2000001,-3.7 -8.2000001,-8.2 v -42.8 c 0,-4.5 3.7000001,-8.2 8.2000001,-8.2 h 18.7 c 15,0 23.1,7.8 25.6,10.8 H 124 c 0.9,-5.2 4.7,-12.3 14.7,-12.3 10.1,0 13.9,7 14.8,12.3 h 85.4 v -14.7 l 5.3,2.9 c 2.6,-6.1 9.2,-14.2000001 21.4,-14.2000001 12.9,0 19.6,9.1000001 21.8,15.3000001 h 21.4 c 15,0 23.1,7.8 25.6,10.8 h 180.5 c 4.5,0 8.2,3.7 8.2,8.2 v 11.3 c 4.6,5.2 5.8,12.8 3.1,19.4 -2.4,5.9 -7.4,9.4 -13.3,9.4 h -86 c -1.7,4 -7.3,12.8 -24.6,12.8 -17.3,0 -22.9,-8.7 -24.6,-12.8 h -51 V 107.45 c 0,4.5 -3.7,8.2 -8.2,8.2 z" />
<path class="st3" d="m 265.5,6.8500019 c 16.2,0 20,15.3000001 20,15.3000001 h 23.2 c 16.9,0 24.4,10.8 24.4,10.8 h 181.7 c 3.1,0 5.7,2.5 5.7,5.7 v 12.3 c 8.8,8.8 3.9,25.4 -7.7,25.4 H 425 c 0,0 -2.6,12.8 -22.8,12.8 -20.2,0 -22.8,-12.8 -22.8,-12.8 H 324.1 V 107.55 c 0,3.1 -2.5,5.7 -5.7,5.7 h -148 c -3.1,0 -5.7,-2.5 -5.7,-5.7 V 76.350002 h -14.2 c 0,0 -4.2,12.8 -18.4,12.8 -14.2,0 -18.4,-12.8 -18.4,-12.8 H 17.4 c -3.1,0 -5.7,-2.5 -5.7,-5.7 v -42.8 c 0,-3.1 2.5,-5.7 5.7,-5.7 h 18.7 c 16.9,0 24.4,10.8 24.4,10.8 h 65.8 c 0,0 0,-12.3 12.5,-12.3 12.5,0 12.5,12.3 12.5,12.3 h 90.1 v -13 l 4.3,2.3 c -0.2,-0.1 3.6,-15.4000002 19.8,-15.4000002 m 0,-5 c -11.9,0 -19,7 -22.5,13.3000002 l -6.7,-3.6 v 8.3 8 h -80.9 c -1.8,-6 -6.8,-12.3 -16.7,-12.3 -10,0 -15,6.2 -16.7,12.3 H 62.7 c -3.5,-3.7 -12.1,-10.8 -26.7,-10.8 H 17.4 c -5.9,0 -10.7,4.8 -10.7,10.7 v 42.8 c 0,5.9 4.8,10.7 10.7,10.7 h 93.2 c 3.2,5.6 10.1,12.8 21.6,12.8 11.5,0 18.5,-7.1 21.6,-12.8 h 6 V 107.45 c 0,5.9 4.8,10.7 10.7,10.7 h 148 c 5.9,0 10.7,-4.8 10.7,-10.7 V 81.250002 H 376 c 2.6,5 9.4,12.8 26.2,12.8 16.8,0 23.5,-7.8 26.2,-12.8 h 84.5 c 6.8,0 12.8,-4.2 15.6,-11 3,-7.2 1.8,-15.5 -2.9,-21.3 v -10.4 c 0,-5.9 -4.8,-10.7 -10.7,-10.7 H 335.4 c -3.5,-3.7 -12.1,-10.8 -26.7,-10.8 H 289 c -3,-6.6 -10.3,-15.2000001 -23.5,-15.2000002 z" />
<path class="st4" d="m 228.3,107.35 c 0.4,-0.4 0.7,-0.8 0.9,-1.3 0.2,-0.5 0.3,-1.2 0.3,-2.2 V 90.950002 c 0,-1.1 -0.1,-1.8 -0.3,-2.3 -0.2,-0.4 -0.5,-0.9 -0.9,-1.2 h 11.8 v 4.1 c -0.4,-0.4 -0.9,-0.7 -1.3,-0.9 -0.4,-0.2 -0.9,-0.3 -1.6,-0.3 h -2.1 v 5 h 3.9 v 3.8 c -0.2,-0.3 -0.5,-0.6 -0.9,-0.8 -0.4,-0.2 -0.8,-0.3 -1.3,-0.3 h -1.7 V 104.05 c 0.5,0.1 0.9,0.2 1.3,0.2 0.4,0 0.7,0 1,0 1.1,0 2.1,-0.1 2.8,-0.3 0.8,-0.2 1.5,-0.6 2.2,-1.1 l -1.1,4.3 h -13 z" />
<path class="st4" d="m 252.4,89.950002 c 0,-0.6 -0.1,-1.1 -0.2,-1.5 -0.1,-0.4 -0.4,-0.8 -0.8,-1.1 h 1.6 c 0.9,0 1.7,0 2.5,-0.1 0.8,-0.1 1.5,-0.1 2.3,-0.3 V 104.65 c 0,0.6 0.1,1.1 0.2,1.5 0.2,0.4 0.4,0.8 0.8,1.2 h -6.4 v -7.2 c 0,-1.499998 -0.2,-2.599998 -0.5,-3.099998 -0.3,-0.5 -0.8,-0.8 -1.6,-0.8 -0.8,0 -1.4,0.4 -1.8,1.1 -0.4,0.7 -0.7,1.7 -0.7,2.999998 0,1.5 0.3,2.7 0.9,3.5 0.6,0.8 1.5,1.2 2.7,1.2 h 0.2 l -1.3,2.7 c -0.1,0 -0.2,0 -0.3,0 -0.1,0 -0.3,0 -0.6,0 -2.1,0 -3.8,-0.6 -5.1,-1.9 -1.3,-1.3 -1.9,-3 -1.9,-5.2 0,-2.199998 0.6,-3.899998 1.9,-5.399998 1.3,-1.4 2.9,-2.1 4.8,-2.1 0.5,0 1,0.1 1.5,0.2 0.5,0.2 1.1,0.4 1.7,0.8 v -4.2 z" />
<path class="st4" d="m 258.8,107.35 c 0.4,-0.3 0.6,-0.7 0.8,-1.1 0.2,-0.4 0.2,-0.9 0.2,-1.5 v -8.699998 c 0,-0.6 -0.1,-1.2 -0.3,-1.6 -0.2,-0.4 -0.4,-0.8 -0.8,-1.1 h 1.5 c 1,0 1.8,0 2.6,-0.1 0.8,0 1.5,-0.1 2.2,-0.2 V 104.65 c 0,0.6 0.1,1.1 0.2,1.5 0.2,0.4 0.4,0.8 0.8,1.1 h -7.2 z m 0.7,-17.699998 c 0,-0.7 0.3,-1.4 0.8,-1.9 0.5,-0.5 1.2,-0.8 1.9,-0.8 0.8,0 1.4,0.3 1.9,0.8 0.5,0.5 0.8,1.1 0.8,1.9 0,0.7 -0.3,1.4 -0.8,1.9 -0.5,0.5 -1.2,0.8 -1.9,0.8 -0.8,0 -1.4,-0.3 -1.9,-0.8 -0.6,-0.6 -0.8,-1.2 -0.8,-1.9 z" />
<path class="st4" d="m 267.5,96.250002 h -1.7 v -2.1 c 1.4,-0.3 2.5,-0.8 3.3,-1.6 0.8,-0.8 1.4,-2 1.7,-3.4 h 2 v 4.3 h 3.3 v 3.6 c -0.3,-0.3 -0.6,-0.5 -1,-0.6 -0.3,-0.1 -0.7,-0.2 -1.2,-0.2 h -1.2 V 101.75 c 0,1.4 0.2,2.3 0.7,2.7 0.4,0.4 1.3,0.6 2.7,0.6 l -1.3,2.4 c -0.5,0.1 -1,0.3 -1.4,0.3 -0.4,0.1 -0.9,0.1 -1.2,0.1 -1.6,0 -2.7,-0.4 -3.5,-1.2 -0.8,-0.8 -1.2,-1.9 -1.2,-3.5 z" />
<path class="st4" d="m 276.5,107.35 c 0.4,-0.3 0.6,-0.7 0.8,-1.1 0.2,-0.4 0.2,-0.9 0.2,-1.5 v -8.699998 c 0,-0.6 -0.1,-1.2 -0.3,-1.6 -0.2,-0.4 -0.4,-0.8 -0.8,-1.1 h 1.5 c 1,0 1.8,0 2.6,-0.1 0.8,0 1.5,-0.1 2.2,-0.2 V 104.65 c 0,0.6 0.1,1.1 0.2,1.5 0.2,0.4 0.4,0.8 0.8,1.1 h -7.2 z m 0.6,-17.699998 c 0,-0.7 0.3,-1.4 0.8,-1.9 0.5,-0.5 1.2,-0.8 1.9,-0.8 0.8,0 1.4,0.3 1.9,0.8 0.5,0.5 0.8,1.1 0.8,1.9 0,0.7 -0.3,1.4 -0.8,1.9 -0.5,0.5 -1.2,0.8 -1.9,0.8 -0.8,0 -1.4,-0.3 -1.9,-0.8 -0.5,-0.6 -0.8,-1.2 -0.8,-1.9 z" />
<path class="st4" d="m 283.7,100.55 c 0,-2.199998 0.8,-3.999998 2.4,-5.399998 1.6,-1.5 3.6,-2.2 6,-2.2 2.3,0 4.2,0.7 5.7,2.1 1.5,1.4 2.3,3.1 2.3,5.199998 0,2.2 -0.8,4 -2.4,5.4 -1.6,1.4 -3.6,2.2 -6,2.2 -2.3,0 -4.2,-0.7 -5.8,-2.1 -1.4,-1.4 -2.2,-3.1 -2.2,-5.2 z m 8.3,4.3 c 0.9,0 1.5,-0.3 2,-1 0.4,-0.7 0.7,-1.7 0.7,-3.1 0,-1.499998 -0.2,-2.699998 -0.7,-3.499998 -0.5,-0.8 -1.1,-1.3 -2,-1.3 -0.9,0 -1.5,0.4 -2,1 -0.4,0.7 -0.7,1.7 -0.7,2.999996 0,1.500002 0.2,2.700002 0.7,3.600002 0.5,0.9 1.1,1.3 2,1.3 z" />
<path class="st4" d="m 300.2,107.35 c 0.4,-0.3 0.6,-0.7 0.8,-1.1 0.2,-0.4 0.2,-0.9 0.2,-1.5 v -8.699998 c 0,-0.6 -0.1,-1.1 -0.2,-1.5 -0.2,-0.4 -0.4,-0.8 -0.8,-1.1 h 1.4 c 1,0 1.8,0 2.6,-0.1 0.8,0 1.5,-0.1 2.2,-0.2 l 0.1,1.4 c 0.6,-0.5 1.2,-0.8 1.8,-1.1 0.6,-0.2 1.2,-0.3 1.8,-0.3 1.6,0 2.8,0.5 3.8,1.4 0.9,0.9 1.4,2.2 1.4,3.8 V 104.85 c 0,0.6 0.1,1.1 0.2,1.5 0.2,0.4 0.4,0.8 0.8,1.1 H 309 c 0.4,-0.3 0.6,-0.7 0.8,-1.1 0.2,-0.4 0.2,-0.9 0.2,-1.5 v -4.5 c 0,-1.599998 -0.1,-2.599998 -0.4,-3.199998 -0.3,-0.6 -0.8,-0.9 -1.4,-0.9 -0.6,0 -1.1,0.3 -1.3,0.8 -0.2,0.5 -0.4,1.6 -0.4,3.399998 v 4.5 c 0,0.6 0.1,1.1 0.2,1.5 0.2,0.4 0.4,0.8 0.8,1.1 h -7.3 z" />
<path class="st4" d="m 168.9,107.85 c 4.8,-7.8 7.9,-12.999998 9.2,-15.499998 1.3,-2.5 2,-4.2 2,-5.1 0,-0.9 -0.3,-1.6 -0.8,-2 -0.5,-0.5 -1.3,-0.7 -2.3,-0.7 -0.8,0 -1.7,0.2 -2.6,0.6 -0.9,0.4 -2.1,1 -3.4,1.9 l 1.5,-5.4 c 1.6,-0.5 3,-0.8 4.1,-1 1.1,-0.2 2.2,-0.3 3.1,-0.3 2.5,0 4.5,0.6 6,1.9 1.5,1.3 2.3,3 2.3,5.1 0,1.4 -0.5,3.1 -1.5,5.1 -1,2 -3.3,5.7 -6.9,10.999998 1,0.1 1.7,0.2 2.3,0.3 0.5,0.1 1,0.1 1.5,0.1 0.9,0 1.9,-0.1 2.8,-0.4 1,-0.3 2.2,-0.8 3.7,-1.5 l -1.8,5.9 z" />
<path class="st4" d="m 196.1,88.650002 h -0.7 l -2.5,-1.3 c -0.3,-0.1 -0.4,-0.3 -0.5,-0.4 -0.1,-0.1 -0.1,-0.3 -0.1,-0.4 0,-0.2 0.1,-0.4 0.2,-0.5 0.1,-0.1 0.3,-0.2 0.5,-0.2 0.2,0 0.3,0 0.5,0.1 0.1,0.1 0.3,0.3 0.6,0.5 z m 1.9,4.5 h -4.6 c 0,0 0,0.1 0,0.1 0,0.1 0,0.1 0,0.1 0,0.6 0.2,1.1 0.6,1.5 0.4,0.3 0.9,0.5 1.6,0.5 0.3,0 0.6,-0.1 1,-0.2 0.4,-0.1 0.9,-0.3 1.4,-0.6 l -0.5,1.7 c -0.5,0.2 -1,0.3 -1.4,0.4 -0.4,0.1 -0.8,0.1 -1.2,0.1 -1.3,0 -2.3,-0.3 -3.1,-1 -0.8,-0.7 -1.1,-1.6 -1.1,-2.7 0,-1.1 0.4,-2 1.1,-2.7 0.7,-0.7 1.6,-1.1 2.8,-1.1 1,0 1.8,0.3 2.5,1 0.6,0.7 1,1.5 1,2.6 v 0.3 z m -2.6,-1.3 c 0,-0.4 -0.1,-0.6 -0.2,-0.8 -0.2,-0.2 -0.4,-0.3 -0.7,-0.3 -0.3,0 -0.5,0.1 -0.7,0.3 -0.2,0.2 -0.3,0.5 -0.3,0.8 z" />
<path class="st4" d="m 198.1,96.550002 c 0.2,-0.2 0.3,-0.3 0.4,-0.5 0.1,-0.2 0.1,-0.4 0.1,-0.8 v -4.3 c 0,-0.3 0,-0.6 -0.1,-0.8 -0.1,-0.2 -0.2,-0.4 -0.4,-0.6 h 0.7 c 0.5,0 1,0 1.3,0 0.3,0 0.7,-0.1 1.1,-0.1 v 0.7 c 0.3,-0.2 0.6,-0.4 0.9,-0.5 0.3,-0.1 0.6,-0.2 1,-0.2 0.4,0 0.8,0.1 1.2,0.3 0.4,0.2 0.7,0.4 1,0.7 0.5,-0.3 0.9,-0.6 1.3,-0.8 0.4,-0.2 0.8,-0.2 1.2,-0.2 0.8,0 1.4,0.2 1.9,0.7 0.5,0.5 0.7,1.1 0.7,1.9 v 3.3 c 0,0.3 0,0.6 0.1,0.8 0.1,0.2 0.2,0.4 0.4,0.5 h -3.6 c 0.2,-0.2 0.3,-0.3 0.4,-0.5 0.1,-0.2 0.1,-0.4 0.1,-0.8 v -2.5 c 0,-0.7 -0.1,-1.1 -0.2,-1.4 -0.2,-0.3 -0.4,-0.4 -0.8,-0.4 -0.3,0 -0.6,0.1 -0.8,0.4 -0.1,0.3 -0.2,0.7 -0.2,1.3 v 2.6 c 0,0.3 0,0.6 0.1,0.8 0.1,0.2 0.2,0.4 0.4,0.5 h -3.6 c 0.2,-0.2 0.3,-0.3 0.4,-0.5 0.1,-0.2 0.1,-0.4 0.1,-0.8 v -2.5 c 0,-0.7 -0.1,-1.1 -0.2,-1.4 -0.2,-0.3 -0.4,-0.4 -0.8,-0.4 -0.3,0 -0.6,0.1 -0.8,0.4 -0.1,0.3 -0.2,0.7 -0.2,1.3 v 2.6 c 0,0.3 0,0.6 0.1,0.8 0.1,0.2 0.2,0.4 0.4,0.5 h -3.6 z" />
<path class="st4" d="m 218.2,93.150002 h -4.6 c 0,0 0,0.1 0,0.1 0,0.1 0,0.1 0,0.1 0,0.6 0.2,1.1 0.6,1.5 0.4,0.3 0.9,0.5 1.6,0.5 0.3,0 0.6,-0.1 1,-0.2 0.4,-0.1 0.9,-0.3 1.4,-0.6 l -0.5,1.7 c -0.5,0.2 -1,0.3 -1.4,0.4 -0.4,0.1 -0.8,0.1 -1.2,0.1 -1.3,0 -2.3,-0.3 -3.1,-1 -0.8,-0.7 -1.1,-1.6 -1.1,-2.7 0,-1.1 0.4,-2 1.1,-2.7 0.7,-0.7 1.6,-1.1 2.8,-1.1 1,0 1.8,0.3 2.5,1 0.6,0.7 1,1.5 1,2.6 v 0.3 z m -2.6,-1.3 c 0,-0.4 -0.1,-0.6 -0.2,-0.8 -0.2,-0.2 -0.4,-0.3 -0.7,-0.3 -0.3,0 -0.5,0.1 -0.7,0.3 -0.2,0.2 -0.3,0.5 -0.3,0.8 z" />
<rect x="192.5" y="99.549995" class="st4" width="23.9" height="0.89999998" />
<path class="st3" d="m 532.5,14.250002 c -0.5,-0.9 -1.2,-1.6 -2.1,-2.1 -0.9,-0.5 -1.8,-0.8 -2.9,-0.8 -1,0 -2,0.3 -2.9,0.8 -0.9,0.5 -1.6,1.2 -2.1,2.1 -0.5,0.9 -0.8,1.8 -0.8,2.9 0,1 0.3,2 0.8,2.9 0.5,0.9 1.2,1.6 2.1,2.1 0.9,0.5 1.8,0.8 2.9,0.8 1,0 2,-0.3 2.9,-0.8 0.9,-0.5 1.6,-1.2 2.1,-2.1 0.5,-0.9 0.8,-1.8 0.8,-2.9 0,-1.1 -0.3,-2 -0.8,-2.9 m -1.7,6.1 c -0.9,0.9 -2,1.4 -3.3,1.4 -1.3,0 -2.4,-0.5 -3.3,-1.4 -0.9,-0.9 -1.4,-2 -1.4,-3.3 0,-1.3 0.4,-2.4 1.4,-3.3 0.9,-0.9 2,-1.4 3.3,-1.4 1.3,0 2.4,0.4 3.3,1.4 0.9,0.9 1.4,2 1.4,3.3 -0.1,1.3 -0.5,2.4 -1.4,3.3 m -2.1,-2.6 c -0.1,-0.1 -0.3,-0.2 -0.5,-0.3 0.6,-0.1 1,-0.4 1.3,-0.6 0.3,-0.3 0.4,-0.7 0.4,-1.1 0,-0.5 -0.2,-0.9 -0.5,-1.3 -0.4,-0.3 -0.9,-0.5 -1.7,-0.5 H 525 v 6.1 h 1.5 v -2.4 c 0.1,0 0.1,0 0.2,0 0.2,0 0.4,0.1 0.6,0.3 0.2,0.2 0.6,0.9 1.2,2.1 h 1.8 c -0.7,-1.2 -1,-1.8 -1,-1.8 -0.2,-0.1 -0.4,-0.4 -0.6,-0.5 m -1.6,-1.1 h -0.7 v -1.5 h 0.7 c 0.4,0 0.7,0.1 0.9,0.2 0.2,0.1 0.3,0.3 0.3,0.6 0,0.2 -0.1,0.4 -0.3,0.5 -0.1,0.1 -0.5,0.2 -0.9,0.2" />
<path class="st3" d="m 491.2,61.350002 c 2.3,1.1 4.5,2 6.6,2.6 2.1,0.6 3.9,0.9 5.3,0.9 1,0 1.9,-0.2 2.5,-0.7 0.6,-0.5 1,-1.1 1,-1.8 0,-0.7 -0.2,-1.3 -0.7,-1.7 -0.5,-0.5 -1.5,-0.9 -3,-1.4 -4.5,-1.5 -7.5,-2.9 -8.8,-4.2 -1.4,-1.3 -2.1,-3.2 -2.1,-5.5 0,-3 1.2,-5.4 3.6,-7.1 2.4,-1.7 5.6,-2.6 9.8,-2.6 1.6,0 3.3,0.1 4.9,0.3 1.6,0.2 3.2,0.5 4.8,1 v 6.4 c -1.3,-0.7 -2.5,-1.3 -3.8,-1.7 -1.3,-0.4 -2.5,-0.5 -3.7,-0.5 -1,0 -1.8,0.2 -2.5,0.6 -0.6,0.4 -1,0.9 -1,1.5 0,1.1 1.2,1.9 3.7,2.6 1.1,0.3 1.9,0.5 2.5,0.8 2.7,1 4.7,2.2 6,3.7 1.3,1.5 2,3.3 2,5.3 0,3.2 -1.3,5.6 -4,7.4 -2.6,1.8 -6.3,2.7 -10.9,2.7 -1.7,0 -3.4,-0.1 -5.1,-0.4 -1.8,-0.3 -3.6,-0.6 -5.5,-1.1 z" />
<path class="st3" d="m 455.5,69.050002 c 0.7,-0.7 1.3,-1.4 1.6,-2.2 0.3,-0.8 0.5,-1.8 0.5,-3.1 v -17.6 c 0,-1.3 -0.2,-2.3 -0.5,-3.1 -0.3,-0.8 -0.8,-1.6 -1.6,-2.2 h 2.8 c 2,0 3.7,-0.1 5.3,-0.2 1.5,-0.1 3,-0.3 4.4,-0.5 l 0.2,2.9 c 1.3,-1 2.5,-1.7 3.7,-2.2 1.2,-0.5 2.4,-0.7 3.7,-0.7 3.2,0 5.7,0.9 7.6,2.8 1.9,1.9 2.8,4.4 2.8,7.6 v 13.1 c 0,1.2 0.2,2.3 0.5,3.1 0.3,0.8 0.8,1.5 1.6,2.2 h -14.7 c 0.8,-0.7 1.3,-1.4 1.6,-2.2 0.3,-0.8 0.5,-1.8 0.5,-3.1 v -9.1 c 0,-3.1 -0.3,-5.3 -0.9,-6.5 -0.6,-1.2 -1.5,-1.9 -2.9,-1.9 -1.3,0 -2.2,0.5 -2.7,1.5 -0.5,1 -0.8,3.3 -0.8,6.8 v 9.1 c 0,1.2 0.2,2.3 0.5,3.1 0.3,0.8 0.8,1.5 1.6,2.2 h -14.8 z" />
<path class="st3" d="m 418.9,55.350002 c 0,-4.4 1.6,-8 4.9,-11 3.3,-2.9 7.3,-4.4 12.2,-4.4 4.6,0 8.5,1.4 11.6,4.3 3.1,2.9 4.7,6.3 4.7,10.5 0,4.4 -1.6,8 -4.9,11 -3.3,2.9 -7.3,4.4 -12.2,4.4 -4.7,0 -8.5,-1.4 -11.6,-4.3 -3.2,-2.9 -4.7,-6.4 -4.7,-10.5 z m 16.7,8.6 c 1.8,0 3.1,-0.7 4,-2.1 0.9,-1.4 1.3,-3.5 1.3,-6.3 0,-3.1 -0.5,-5.4 -1.4,-7.1 -0.9,-1.7 -2.3,-2.5 -4,-2.5 -1.8,0 -3.1,0.7 -4,2.1 -0.9,1.4 -1.4,3.5 -1.4,6.2 0,3.1 0.5,5.5 1.4,7.2 1,1.6 2.3,2.5 4.1,2.5 z" />
<path class="st3" d="m 397.7,49.650002 c 0,2 0.3,3.5 0.9,4.5 0.6,1 1.5,1.5 2.7,1.5 1.1,0 2,-0.4 2.6,-1.1 0.6,-0.7 0.9,-1.7 0.9,-3.1 0,-1.9 -0.3,-3.4 -0.9,-4.4 -0.6,-1 -1.5,-1.5 -2.7,-1.5 -1.1,0 -2,0.4 -2.6,1.1 -0.5,0.7 -0.9,1.7 -0.9,3 z m 20.9,-9.4 -2.6,5.6 h -3.3 c 0.8,0.8 1.4,1.7 1.8,2.5 0.4,0.8 0.5,1.8 0.5,2.9 0,2.3 -0.7,4.3 -2.1,5.9 -1.4,1.6 -3.4,2.7 -5.9,3.3 -1.1,0.3 -2.6,0.4 -4.4,0.6 -2.2,0.1 -3.3,0.6 -3.3,1.5 0,0.3 0.2,0.5 0.5,0.7 0.3,0.2 0.8,0.3 1.3,0.3 0.3,0 1.1,-0.1 2.4,-0.2 1.3,-0.2 2.4,-0.2 3.4,-0.2 3.5,0 6.3,0.8 8.4,2.4 2.2,1.6 3.2,3.7 3.2,6.2 0,3.1 -1.5,5.6 -4.6,7.4 -3.1,1.8 -7.2,2.8 -12.5,2.8 -4.9,0 -8.6,-0.6 -11.2,-1.9 -2.6,-1.3 -3.9,-3.1 -3.9,-5.4 0,-1.4 0.6,-2.5 1.9,-3.5 1.3,-1 2.8,-1.5 4.6,-1.5 0.5,0 1.1,0.1 1.7,0.2 0.6,0.1 1.5,0.3 2.7,0.7 -0.8,0.3 -1.4,0.7 -1.8,1.2 -0.4,0.5 -0.6,1 -0.6,1.6 0,1 0.5,1.8 1.5,2.5 1,0.6 2.4,1 4,1 2.1,0 3.8,-0.4 4.9,-1.3 1.1,-0.8 1.7,-2.1 1.7,-3.7 0,-1.3 -0.5,-2.3 -1.5,-3 -1,-0.7 -2.4,-1.1 -4.3,-1.1 -0.5,0 -1.3,0 -2.3,0.1 -1,0.1 -1.7,0.1 -2.1,0.1 -1.5,0 -2.7,-0.4 -3.5,-1.3 -0.8,-0.9 -1.5,-2.3 -2,-4.4 l 3.8,-1.8 c -2.4,-1.1 -4.3,-2.4 -5.5,-4 -1.2,-1.6 -1.8,-3.4 -1.8,-5.4 0,-3 1.2,-5.5 3.7,-7.6 2.5,-2.1 5.5,-3.1 9.2,-3.1 0.6,0 1.7,0.1 3.5,0.2 1.8,0.1 3.3,0.1 4.5,0.1 h 4.1 c 0.6,0 1.4,0 2.3,-0.1 0.9,-0.1 2.1,-0.2 3.6,-0.3 z" />
<path class="st3" d="m 371.5,55.850002 c -2.2,0.8 -3.7,1.6 -4.5,2.3 -0.8,0.7 -1.1,1.5 -1.1,2.5 0,1.1 0.4,1.9 1.1,2.6 0.8,0.6 1.8,0.9 3.1,0.9 h 0.5 l -2.5,5.3 c -0.9,0.1 -1.6,0.1 -2.2,0.1 -0.6,0 -1,0 -1.4,0 -2.9,0 -5.3,-0.8 -7.2,-2.5 -1.9,-1.7 -2.8,-3.8 -2.8,-6.3 0,-2.2 0.7,-4 2.1,-5.4 1.4,-1.4 3.5,-2.5 6.3,-3.1 0.8,-0.2 1.8,-0.4 3.2,-0.7 3.7,-0.7 5.6,-1.9 5.6,-3.3 0,-0.9 -0.3,-1.6 -1,-2 -0.6,-0.5 -1.6,-0.7 -2.8,-0.7 -1.2,0 -2.4,0.1 -3.6,0.4 -1.3,0.3 -2.6,0.7 -4,1.3 l 2.8,-6.3 c 1.3,-0.4 2.5,-0.6 3.6,-0.8 1.1,-0.2 2.1,-0.3 3.2,-0.3 2.4,0 4.5,0.3 6.2,0.8 1.7,0.5 3,1.3 4.1,2.4 0.9,1 1.6,2.1 2,3.4 0.4,1.3 0.6,3.5 0.6,6.5 v 7.1 c 0,1.5 0.3,2.5 0.9,3.1 0.6,0.6 1.8,1 3.6,1.3 l -2.3,5 c -0.8,0.1 -1.5,0.1 -2,0.1 -0.5,0 -1,0 -1.3,0 -2.9,0 -5.3,-0.8 -7.1,-2.4 -1.8,-1.6 -2.8,-3.7 -2.8,-6.4 v -4.9 z" />
<path class="st3" d="m 331.3,69.050002 c 0.7,-0.7 1.3,-1.4 1.6,-2.2 0.3,-0.8 0.5,-1.8 0.5,-3.1 v -17.6 c 0,-1.3 -0.2,-2.3 -0.5,-3.2 -0.3,-0.8 -0.8,-1.6 -1.5,-2.2 h 2.7 c 2,0 3.7,-0.1 5.3,-0.2 1.5,-0.1 3,-0.3 4.4,-0.5 l 0.2,3.9 c 0.6,-1.3 1.4,-2.2 2.5,-2.8 1.1,-0.6 2.4,-1 4,-1 0.2,0 0.6,0 0.9,0 0.4,0 0.9,0.1 1.5,0.1 v 7.2 c -0.6,-0.1 -1.2,-0.1 -1.7,-0.1 -0.5,0 -1,0 -1.5,0 -2,0 -3.5,0.5 -4.4,1.4 -0.9,0.9 -1.3,2.5 -1.3,4.8 v 10.1 c 0,1.2 0.2,2.3 0.5,3.1 0.3,0.8 0.8,1.5 1.6,2.2 h -14.8 z" />
<path class="st3" d="m 293.4,52.850002 v 7.6 c 2,1.7 4.3,2.3 6,2.3 1.8,0 3.2,-0.6 3.9,-1.8 0.8,-1.4 0.5,-3.5 -0.8,-5.9 l -1.4,-2.6 3,0.1 c 0.2,0 0.3,0 0.5,0 v -6.7 c -6,0.6 -9.3,3.9 -11.2,7 z" />
<path class="st3" d="m 324.7,34.250002 c -4.1,-3.6 -9.9,-5.3 -17.3,-5.3 H 291 c 0.9,0.8 1.5,1.6 1.8,2.6 0.4,0.9 0.5,2.4 0.5,4.5 v 6.2 c 1.7,-0.6 3.4,-1 5.3,-1 2.1,0 4.1,0.4 5.9,1.2 v -6.4 c 0.7,-0.1 1.3,-0.2 2,-0.3 0.6,-0.1 1.2,-0.1 1.8,-0.1 3.3,0 5.9,1.2 7.8,3.7 1.9,2.5 2.9,5.8 2.9,10.1 0,4 -0.9,7.2 -2.7,9.7 2,2.6 3.1,5.7 3.1,8.5 1.7,-0.6 3.1,-1.5 4.4,-2.6 2.3,-2 4,-4.3 5.2,-7 1.2,-2.7 1.8,-5.7 1.8,-8.9 0.1,-6.4 -2,-11.3 -6.1,-14.9 z" />
<path class="st3" d="m 268.2,33.450002 c 0.7,-0.6 4.1,-1.6 3.7,-6.9 -0.1,-2.3 -1.5,-4.4 -4.3,-4.6 -3.3,0 -4.4,3.3 -4.4,4.8 0,2.2 0.4,4.9 0.4,4.9 0,0 -1.8,-0.8 -3.6,-2.8 0,1.1 -0.7,3.4 -1.1,4.1 -3.4,0 -6.5,-2.2 -7.4,-3.3 -0.3,-8.7 5.8,-15.6 13.2,-15.7 8.3,-0.4 14.4,5.4 14.3,14 0.4,6.7 -2.6,9.8 -3.8,10.8 -3.8,0.2 -6.1,-2 -7,-5.3 z m 1.2,7.2 c 0.1,-0.1 0.2,-0.1 0.4,-0.1 0.5,0 1.1,0.4 1.1,0.4 0,0 -0.4,0 -0.5,0.3 0,0.1 0.1,0.4 0.4,0.5 0.2,0.1 0.5,0.1 0.6,0 0.2,-0.2 0.1,-0.5 0.1,-0.5 0,0 0.6,0.5 0.7,0.9 0.2,0.5 -0.2,0.6 -0.4,0.7 -0.2,0.1 -0.8,0 -1.1,0 -0.3,-0.1 -0.7,-0.3 -0.9,-0.5 -0.2,-0.2 -0.5,-0.9 -0.5,-1.1 0,-0.3 0.1,-0.5 0.1,-0.6 z m -20.8,2.8 c 1.1,-2.1 0.2,-5.7 -2.2,-6.9 2.4,-3.5 0.5,-7.7 -2,-11.5 2.5,2.2 8.4,8.8 14,8.8 -1.3,1.8 -2.1,2.7 -2.9,3.3 1.7,2.6 1.8,4.4 1.5,6.7 0.6,0.4 1.6,1.3 2.7,2.8 -3.9,0.7 -6.1,2.6 -7.3,4 0,-3.6 -2.4,-5.9 -3.8,-7.2 z m 9.7,0.1 c 0.2,-2.8 -0.1,-4.3 -1.4,-6.1 1.9,-1.7 3.3,-4.3 3.8,-6.6 0.6,0.8 2.3,2 3.6,2.5 0,-0.6 0.1,-1.6 0.8,-3 0.6,-1 1.7,-2.1 2.1,-2.3 0,0 -1.1,4 -0.1,6.3 1,2.4 1.6,3.2 2.9,4.3 1.4,1.1 2.9,1.2 3.4,1.3 0.5,0.1 1.1,0.6 1.3,1 0.1,0.4 0.2,1 0,1.3 -0.2,0.3 -0.8,0.4 -1,0.4 -0.5,-0.1 -1.3,-1.1 -1.6,-1.4 -0.3,-0.3 -0.9,-0.7 -1.2,-0.8 -0.3,-0.1 -1.2,-0.5 -1.4,-0.5 -0.2,0 -0.7,0 -0.9,0.5 -0.2,0.4 -0.1,1 0,1.5 0.1,0.4 0.4,1 0.7,1.3 0.3,0.3 0.9,0.5 1.3,0.6 0.4,0.1 2.3,0.1 3.4,0.3 1.1,0.2 3,1.6 3.5,1.8 0.5,0.2 1.9,0.3 2.3,0.3 0.4,0 1.2,0.7 1.2,1.2 0,0.5 -0.5,2.1 -1.3,2.4 -0.9,0.4 -2.7,0.1 -4.1,-0.4 -1.3,-0.5 -3.2,-1.7 -3.7,-1.9 -0.4,-0.2 -2.4,-0.6 -3.3,-0.5 -1,0.1 -2,0.5 -2.8,0.1 -0.6,-0.3 -1.3,-1 -1.8,-2 -0.4,-0.8 -0.7,-1.9 -0.5,-2.6 0.1,-0.6 0.6,-0.9 1.1,-1.1 0.5,-0.2 1.9,0.5 2.1,0.5 0.2,0 0.4,0 0.5,-0.3 0.1,-0.3 -0.2,-0.6 -0.4,-0.7 -0.2,-0.1 -1.9,-0.8 -2.5,-0.6 -0.6,0.2 -1.4,0.8 -1.8,1.8 -0.3,0.8 0,2.1 0.5,3.1 0.6,1.2 1.1,2.2 2.7,2.9 -1.8,2.9 -1.8,5.6 -1.9,7 -0.4,-4.8 -2.4,-8.6 -5.5,-11.6 z m 10.2,12.5 c -1,-3.1 -2.2,-4.4 -2.7,-4.9 0.1,-0.7 1,-2.4 1.8,-2.8 0.5,0.2 3.9,6.2 4.2,9.5 -0.2,0.5 -0.5,0.9 -0.9,1.3 -0.6,0.7 -1.4,1 -1.8,1 -0.6,-0.1 -0.8,-1.8 -0.8,-1.8 0,0 0.3,-1.8 0.2,-2.3 z m 25.7,17.7 c -0.2,1.2 -1.5,3.1 -2.8,3.8 0.8,-1.5 0.9,-2.3 0.9,-3.6 0,-1.1 -0.4,-2.3 -0.4,-2.3 -0.5,-1.3 -1.2,-2.2 -1.7,-3 -0.5,-1 -13.6,-12.5 -18.8,-17 -0.3,-0.3 -3,-3.7 -3,-3.7 0,0 0.4,-0.3 1.2,-0.2 0.8,0.1 2.4,0.9 3.9,2.1 2.5,2 16.6,14.7 17.3,15.2 2.5,1.8 4.7,3.2 8.8,3.2 7.5,-0.4 9.8,-5.8 9.5,-9.5 3.1,2.1 5.4,5.8 5.3,9.5 -0.9,7.1 -5.7,9.5 -11,9.3 -4.3,-0.3 -7.1,-2.2 -9.2,-3.8 z m -50.8,-4.6 c 7.2,-2 9.5,-13.1 1.4,-17.5 l 4.4,-6 c 1.9,1.9 2.3,3.7 2.5,6.9 1.5,-1.5 4.6,-4.6 8.5,-5 0,0 1.5,2.1 2,4.4 -8,9.2 -2.8,17.4 1.2,20.7 3.9,3.2 12.1,5 17.1,-5.8 0,0 0.2,-1.9 -0.7,-2.7 -2.3,-1.9 -6.8,-5.7 -6.8,-5.7 -0.1,-1.5 -1,-3.9 -2.2,-6 6.1,5.5 17.9,15.7 18.6,17 1.9,1.8 2.2,7.9 -0.3,10.6 2.5,-0.2 4.6,-2.6 5.5,-4.3 2.6,2.4 7.1,3.2 9.2,3.2 4.6,-0.1 11.1,-1.7 11.8,-10.4 -0.1,-5.4 -4.1,-10.2 -7.9,-11.3 0.8,7.1 -3.3,9.5 -7.4,9.7 -5.1,-0.1 -5.8,0.7 -24.9,-17 1.7,0.9 3.4,0.8 5.2,0.7 0.2,0.1 2.8,3.2 3.3,2.9 2.1,-4.5 -1.8,-14.1 -2.4,-14.9 2.9,1.9 6.9,6.2 7.8,8.4 4.3,-4.7 11,-4.9 15.5,-2.8 -10.8,0.8 -14.5,10.2 -15.2,14.2 6,9.9 20.7,7.1 14.6,-4.1 8.9,0.3 14.1,8.4 13.8,13.8 0.3,8.8 -5.8,12.9 -13.3,13.2 -5.8,-0.2 -7.8,-1.4 -9.2,-2.2 -1.2,1.6 -2.5,3.3 -6.8,3.6 -1.7,0.1 -4.1,-0.7 -4.9,-1.9 6.9,-1.6 5.1,-8.4 2.8,-10.5 -7.4,10.8 -15.6,14.4 -22.5,14.1 -9.7,0 -18.9,-6.5 -20.7,-15.3 z" />
<path class="st3" d="m 221.5,61.350002 c 2.3,1.1 4.5,2 6.6,2.6 2.1,0.6 3.9,0.9 5.3,0.9 1,0 1.9,-0.2 2.5,-0.7 0.6,-0.5 1,-1.1 1,-1.8 0,-0.7 -0.2,-1.3 -0.7,-1.7 -0.5,-0.5 -1.5,-0.9 -3,-1.4 -4.5,-1.5 -7.5,-2.9 -8.8,-4.2 -1.4,-1.3 -2.1,-3.2 -2.1,-5.5 0,-3 1.2,-5.4 3.6,-7.1 2.4,-1.7 5.6,-2.6 9.8,-2.6 1.6,0 3.3,0.1 4.9,0.3 1.6,0.2 3.2,0.5 4.8,1 v 6.4 c -1.3,-0.7 -2.5,-1.3 -3.8,-1.7 -1.3,-0.4 -2.5,-0.5 -3.7,-0.5 -1,0 -1.8,0.2 -2.5,0.6 -0.6,0.4 -1,0.9 -1,1.5 0,1.1 1.2,1.9 3.7,2.6 1.1,0.3 1.9,0.5 2.5,0.8 2.7,1 4.7,2.2 6,3.7 1.3,1.5 2,3.3 2,5.3 0,3.2 -1.3,5.6 -4,7.4 -2.6,1.8 -6.3,2.7 -10.9,2.7 -1.7,0 -3.4,-0.1 -5.1,-0.4 -1.8,-0.3 -3.6,-0.6 -5.5,-1.1 z" />
<path class="st3" d="m 185.8,69.050002 c 0.7,-0.7 1.3,-1.4 1.6,-2.2 0.3,-0.8 0.5,-1.8 0.5,-3.1 v -17.6 c 0,-1.3 -0.2,-2.3 -0.5,-3.1 -0.3,-0.8 -0.8,-1.6 -1.6,-2.2 h 2.8 c 2,0 3.7,-0.1 5.3,-0.2 1.5,-0.1 3,-0.3 4.4,-0.5 l 0.2,2.9 c 1.3,-1 2.5,-1.7 3.7,-2.2 1.2,-0.5 2.4,-0.7 3.7,-0.7 3.2,0 5.7,0.9 7.6,2.8 1.9,1.9 2.8,4.4 2.8,7.6 v 13.1 c 0,1.2 0.2,2.3 0.5,3.1 0.3,0.8 0.8,1.5 1.6,2.2 h -14.7 c 0.8,-0.7 1.3,-1.4 1.6,-2.2 0.3,-0.8 0.5,-1.8 0.5,-3.1 v -9.1 c 0,-3.1 -0.3,-5.3 -0.9,-6.5 -0.6,-1.2 -1.5,-1.9 -2.9,-1.9 -1.3,0 -2.2,0.5 -2.7,1.5 -0.5,1 -0.8,3.3 -0.8,6.8 v 9.1 c 0,1.2 0.2,2.3 0.5,3.1 0.3,0.8 0.8,1.5 1.6,2.2 h -14.8 z" />
<path class="st3" d="m 149.5,55.350002 c 0,-4.4 1.6,-8 4.9,-11 3.3,-2.9 7.3,-4.4 12.2,-4.4 4.6,0 8.5,1.4 11.6,4.3 3.1,2.9 4.7,6.3 4.7,10.5 0,4.4 -1.6,8 -4.9,11 -3.3,2.9 -7.3,4.4 -12.2,4.4 -4.7,0 -8.5,-1.4 -11.6,-4.3 -3.1,-2.9 -4.7,-6.4 -4.7,-10.5 z m 16.7,8.6 c 1.8,0 3.1,-0.7 4,-2.1 0.9,-1.4 1.3,-3.5 1.3,-6.3 0,-3.1 -0.5,-5.4 -1.4,-7.1 -0.9,-1.7 -2.3,-2.5 -4,-2.5 -1.8,0 -3.1,0.7 -4,2.1 -0.9,1.4 -1.4,3.4 -1.4,6.2 0,3.1 0.5,5.5 1.4,7.2 1.1,1.6 2.4,2.5 4.1,2.5 z" />
<path class="st3" d="m 133.3,33.150002 c 0,-1.5 0.5,-2.8 1.6,-3.8 1.1,-1 2.4,-1.6 3.9,-1.6 1.5,0 2.8,0.5 3.9,1.6 1.1,1.1 1.6,2.3 1.6,3.8 0,1.5 -0.5,2.8 -1.6,3.8 -1.1,1.1 -2.4,1.6 -3.9,1.6 -1.5,0 -2.8,-0.5 -3.9,-1.6 -1.1,-1 -1.6,-2.3 -1.6,-3.8 z m -1.4,7.8 h 3 c 2,0 3.7,-0.1 5.2,-0.2 1.5,-0.1 3,-0.3 4.4,-0.5 v 27.1 c 0,3.3 -0.3,5.7 -0.8,7.1 -0.6,1.5 -1.5,2.7 -2.9,3.6 -1.5,1 -3.2,1.8 -5,2.3 -1.9,0.5 -4,0.8 -6.3,0.9 1.6,-1.6 2.8,-3.2 3.5,-4.9 0.7,-1.6 1,-4 1,-7.1 v -23.2 c 0,-1.3 -0.2,-2.3 -0.5,-3.2 -0.3,-0.6 -0.9,-1.3 -1.6,-1.9 z" />
<path class="st3" d="m 96.5,69.050002 c 0.7,-0.7 1.3,-1.4 1.6,-2.2 0.3,-0.8 0.499998,-1.8 0.499998,-3.1 v -17.6 c 0,-1.3 -0.199998,-2.3 -0.499998,-3.1 -0.3,-0.8 -0.8,-1.6 -1.6,-2.2 h 2.799998 c 2.000002,0 3.700002,-0.1 5.300002,-0.2 1.5,-0.1 3,-0.3 4.4,-0.5 l 0.2,2.9 c 1.3,-1 2.5,-1.7 3.7,-2.2 1.2,-0.5 2.4,-0.7 3.7,-0.7 3.2,0 5.7,0.9 7.6,2.8 1.9,1.9 2.8,4.4 2.8,7.6 v 13.1 c 0,1.2 0.2,2.3 0.5,3.1 0.3,0.8 0.8,1.5 1.6,2.2 h -14.7 c 0.8,-0.7 1.3,-1.4 1.6,-2.2 0.3,-0.8 0.5,-1.8 0.5,-3.1 v -9.1 c 0,-3.1 -0.3,-5.3 -0.9,-6.5 -0.6,-1.2 -1.5,-1.9 -2.9,-1.9 -1.3,0 -2.2,0.5 -2.7,1.5 -0.5,1 -0.8,3.3 -0.8,6.8 v 9.1 c 0,1.2 0.2,2.3 0.5,3.1 0.3,0.8 0.8,1.5 1.6,2.2 H 96.5 Z" />
<path class="st3" d="m 60.2,55.350002 c 0,-4.4 1.6,-8 4.9,-11 3.3,-2.9 7.3,-4.4 12.2,-4.4 4.6,0 8.5,1.4 11.6,4.3 3.1,2.9 4.7,6.3 4.7,10.5 0,4.4 -1.6,8 -4.9,11 -3.3,2.9 -7.3,4.4 -12.2,4.4 -4.7,0 -8.5,-1.4 -11.6,-4.3 -3.2,-2.9 -4.7,-6.4 -4.7,-10.5 z m 16.7,8.6 c 1.8,0 3.1,-0.7 4,-2.1 0.9,-1.4 1.3,-3.5 1.3,-6.3 0,-3.1 -0.5,-5.4 -1.4,-7.1 -0.9,-1.7 -2.3,-2.5 -4,-2.5 -1.8,0 -3.1,0.7 -4,2.1 -0.9,1.4 -1.4,3.4 -1.4,6.2 0,3.1 0.5,5.5 1.4,7.2 1.1,1.6 2.4,2.5 4.1,2.5 z" />
<path class="st3" d="m 18.5,69.250002 c 0.9,-0.8 1.5,-1.7 1.8,-2.6 0.4,-0.9 0.5,-2.4 0.5,-4.5 v -26 c 0,-2.1 -0.2,-3.6 -0.5,-4.5 -0.4,-0.9 -1,-1.8 -1.8,-2.6 h 16.3 c 7.4,0 13.2,1.8 17.3,5.3 4.1,3.6 6.2,8.5 6.2,14.8 0,3.3 -0.6,6.2 -1.8,8.9 -1.2,2.7 -2.9,5 -5.2,7 -1.7,1.5 -3.7,2.5 -6.1,3.2 -2.4,0.7 -5.3,1 -8.9,1 z m 13.5,-6.4 c 0.7,0.2 1.3,0.3 1.9,0.4 0.6,0.1 1.3,0.1 1.9,0.1 3.2,0 5.8,-1.3 7.8,-3.8 2,-2.5 3,-5.8 3,-10 0,-4.3 -1,-7.6 -2.9,-10.1 -1.9,-2.5 -4.5,-3.7 -7.8,-3.7 -0.6,0 -1.2,0 -1.8,0.1 -0.6,0.1 -1.3,0.1 -2,0.3 v 26.7 z" />
</svg>