<svg xmlns="http://www.w3.org/2000/svg" width="300" height="50" viewBox="0 0 300 50"><defs><style>.a{fill:#fff;}.a,.b,.c{stroke:#523;stroke-miterlimit:10;}.b{fill:none;}.c{fill:#bb9;}</style></defs><path class="a" d="M298,43.91,298,14a4.33,4.33,0,0,0-3.89-4H10V6A4.3,4.3,0,0,0,6,2,4.3,4.3,0,0,0,2,6V36a4.3,4.3,0,0,0,4,4l284,0v4"/><line class="b" x1="290" y1="40.02" x2="294" y2="40.02"/><path class="b" d="M6,32a4.3,4.3,0,0,0-4,4"/><line class="b" x1="10" y1="36" x2="10" y2="10"/><path class="c" d="M294,40s4,0,4,4-4,4-4,4-4,0-4-4a2,2,0,0,1,2-2,2,2,0,0,1,2.11,1.89Z"/><path class="c" d="M6,36a2,2,0,0,0,2,2,2,2,0,0,0,2-2s0-4-4-4Z"/></svg>