<svg xmlns="http://www.w3.org/2000/svg" width="360" height="50" viewBox="0 0 360 50"><defs><style>.a{fill:#fff;}.a,.b,.c{stroke:#886;stroke-miterlimit:10;}.b{fill:none;}.c{fill:#dda;}</style></defs><title>add2-fr-scroll</title><path class="a" d="M358,44V14a4.41,4.41,0,0,0-4-4H10V6A4.3,4.3,0,0,0,6,2,4.3,4.3,0,0,0,2,6V36a4.3,4.3,0,0,0,4,4H350v4"/><line class="b" x1="350" y1="40" x2="354" y2="40"/><path class="b" d="M6,32a4.3,4.3,0,0,0-4,4"/><line class="b" x1="10" y1="36" x2="10" y2="10"/><path class="c" d="M354,40s4,0,4,4-4,4-4,4-4,0-4-4a2,2,0,0,1,4,0Z"/><path class="c" d="M6,36a2,2,0,0,0,2,2,2,2,0,0,0,2-2s0-4-4-4Z"/></svg>