<svg xmlns="http://www.w3.org/2000/svg" width="357" height="47" viewBox="0 0 357 47"><defs><style>.a{fill:#fff;}.a,.b,.c{stroke:#523;stroke-miterlimit:10;}.b{fill:none;}.c{fill:#bb9;}</style></defs><path class="a" d="M358,44V14a4.41,4.41,0,0,0-4-4H10V6A4.3,4.3,0,0,0,6,2,4.3,4.3,0,0,0,2,6V36a4.3,4.3,0,0,0,4,4H350v4" transform="translate(-1.5 -1.5)"/><line class="b" x1="348.5" y1="38.5" x2="352.5" y2="38.5"/><path class="b" d="M6,32a4.3,4.3,0,0,0-4,4" transform="translate(-1.5 -1.5)"/><line class="b" x1="8.5" y1="34.5" x2="8.5" y2="8.5"/><path class="c" d="M354,40s4,0,4,4-4,4-4,4-4,0-4-4a2,2,0,0,1,4,0Z" transform="translate(-1.5 -1.5)"/><path class="c" d="M6,36a2,2,0,0,0,2,2,2,2,0,0,0,2-2s0-4-4-4Z" transform="translate(-1.5 -1.5)"/></svg>