<?xml version="1.0" encoding="UTF-8" standalone="no"?><svg xmlns:rdf="http://www.w3.org/1999/02/22-rdf-syntax-ns#" xmlns:svg="http://www.w3.org/2000/svg" xmlns="http://www.w3.org/2000/svg" width="500" height="160" viewBox="0 0 500 160"><g style="fill:#2244aa" ><path d="m 139.61,147.54032 a 5.65,5.65 0 0 1 -5.58,-5.09 v -0.14 c 0,-7.46 0.06,-17.81 0.08,-23.78 -3.76,2.26 -9.33,4.84 -15.28,4.84 -10.81,0 -17.76,-4.49 -21.24,-13.71 l -89.88,0.28 v 0 c -2.32,0 -5,-1.9 -5.21,-4.45 v -0.1 L 2.44,56.640321 c 0.1,-2 1.75,-4.43 4,-4.71 h 0.15 l 19.69,-0.06 0.06,-15.350005 c -0.1,-4.94 3.23,-5.57 4.66,-5.6 l 67.26,-0.2 5.4,-14.819997 0.06,-4.899999 a 4.76,4.76 0 0 1 4.72,-4.66 l 19.39,-0.11 a 4.75,4.75 0 0 1 4.35,2.91 l 3.13,7.549999 h 118.44 l 3.31,-6.919999 v -0.08 a 5.41,5.41 0 0 1 4.68,-2.76 l 13.43,-0.07 a 3.89,3.89 0 0 1 3.37,5.84 l -2.35,4.169999 59.12,-0.09 a 4.93,4.93 0 0 1 5,4.71 l 0.09,9.169997 122.73,-0.06 c 3,0 4.93,3 4.94,4.92 l 0.16,26.060005 a 2.59,2.59 0 0 0 2,2.5 c 8.31,1.95 8.9,7.13 8.94,7.71 v 0.16 c 0,0 0,4.81 0,7.86 4.23,6 5.06,12.91 2.26,19.09 a 18.6,18.6 0 0 1 -15.32,10.829999 h -0.52 -72.69 c -4.94,9 -16.2,14.6 -29.42,14.6 -13.22,0 -24.48,-5.65 -29.2,-14.78 l -36.35,0.18 0.09,33 a 4,4 0 0 1 -1.13,2.9 5.79,5.79 0 0 1 -4.13,1.83 z" /></g><g style="fill:#ff1133" ><path d="m 199.78,138.47032 a 3.58,3.58 0 0 0 0.89,-1.28 6.92,6.92 0 0 0 0.26,-2.23 v -12.88 a 6.89,6.89 0 0 0 -0.26,-2.25 3.42,3.42 0 0 0 -0.89,-1.23 h 11.79 v 4.12 a 4.57,4.57 0 0 0 -1.29,-0.87 4,4 0 0 0 -1.58,-0.27 h -2.06 v 5 h 3.87 v 3.83 a 2.13,2.13 0 0 0 -0.91,-0.75 2.78,2.78 0 0 0 -1.26,-0.27 h -1.7 v 6 a 10.72,10.72 0 0 0 1.25,0.22 c 0.35,0 0.68,0.05 1,0.05 a 10.28,10.28 0 0 0 2.84,-0.34 6.77,6.77 0 0 0 2.2,-1.18 l -1.08,4.34 z" /><path d="m 223.81,121.01032 a 4.1,4.1 0 0 0 -0.24,-1.52 2.78,2.78 0 0 0 -0.76,-1.09 h 1.58 c 0.87,0 1.7,0 2.48,-0.08 0.78,-0.08 1.54,-0.15 2.28,-0.27 v 17.74 a 4.38,4.38 0 0 0 0.22,1.51 3.38,3.38 0 0 0 0.78,1.17 h -6.39 v -7.21 a 7,7 0 0 0 -0.47,-3.11 1.66,1.66 0 0 0 -1.58,-0.82 2,2 0 0 0 -1.82,1.07 5.58,5.58 0 0 0 -0.66,3 5.5,5.5 0 0 0 0.92,3.45 3.14,3.14 0 0 0 2.66,1.19 h 0.23 l -1.31,2.69 h -0.33 -0.56 a 6.77,6.77 0 0 1 -5.08,-1.94 7.15,7.15 0 0 1 -1.89,-5.2 7.62,7.62 0 0 1 1.94,-5.36 6.22,6.22 0 0 1 4.79,-2.14 5.2,5.2 0 0 1 1.5,0.23 9.93,9.93 0 0 1 1.71,0.75 z" /><path d="m 230.25,138.47032 a 2.64,2.64 0 0 0 0.78,-1.07 4.25,4.25 0 0 0 0.23,-1.53 v -8.68 a 4.1,4.1 0 0 0 -0.25,-1.57 2.42,2.42 0 0 0 -0.79,-1.07 h 1.53 c 1,0 1.83,0 2.58,-0.08 0.75,-0.08 1.48,-0.12 2.17,-0.23 v 11.63 a 4.48,4.48 0 0 0 0.23,1.53 3.07,3.07 0 0 0 0.78,1.07 z m 0.66,-17.76 a 2.51,2.51 0 0 1 0.78,-1.88 2.65,2.65 0 0 1 1.93,-0.78 2.6,2.6 0 0 1 1.91,0.78 2.62,2.62 0 0 1 0,3.77 2.64,2.64 0 0 1 -1.91,0.78 2.67,2.67 0 0 1 -1.93,-0.76 2.56,2.56 0 0 1 -0.78,-1.91 z" /><path d="m 238.98,127.40032 h -1.66 v -2.1 a 6,6 0 0 0 3.34,-1.64 6.5,6.5 0 0 0 1.68,-3.42 h 2 v 4.31 h 3.33 v 3.59 a 3,3 0 0 0 -1,-0.58 3.35,3.35 0 0 0 -1.17,-0.18 h -1.19 v 5.51 c 0,1.38 0.23,2.26 0.68,2.66 a 4.33,4.33 0 0 0 2.65,0.61 l -1.28,2.37 a 11.14,11.14 0 0 1 -1.44,0.32 7.73,7.73 0 0 1 -1.23,0.1 4.87,4.87 0 0 1 -3.53,-1.15 4.7,4.7 0 0 1 -1.17,-3.49 z" /><path d="m 247.9,138.47032 a 2.55,2.55 0 0 0 0.78,-1.07 4.24,4.24 0 0 0 0.24,-1.53 v -8.68 a 4.3,4.3 0 0 0 -0.25,-1.57 2.44,2.44 0 0 0 -0.8,-1.07 h 1.53 c 1,0 1.83,0 2.58,-0.08 0.75,-0.08 1.48,-0.12 2.17,-0.23 v 11.63 a 4.24,4.24 0 0 0 0.24,1.53 2.84,2.84 0 0 0 0.78,1.07 z m 0.66,-17.76 a 2.55,2.55 0 0 1 0.78,-1.88 2.65,2.65 0 0 1 1.94,-0.78 2.7,2.7 0 0 1 2.7,2.66 2.55,2.55 0 0 1 -0.8,1.89 2.63,2.63 0 0 1 -1.9,0.78 2.68,2.68 0 0 1 -1.94,-0.76 2.6,2.6 0 0 1 -0.78,-1.91 z" /><path d="m 255.18,131.68032 a 7,7 0 0 1 2.4,-5.42 8.6,8.6 0 0 1 6,-2.19 8.14,8.14 0 0 1 5.73,2.12 6.82,6.82 0 0 1 2.3,5.19 7,7 0 0 1 -2.42,5.41 8.71,8.71 0 0 1 -6,2.15 8.14,8.14 0 0 1 -5.75,-2.11 6.7,6.7 0 0 1 -2.26,-5.15 z m 8.23,4.25 a 2.18,2.18 0 0 0 2,-1 5.85,5.85 0 0 0 0.65,-3.09 7.39,7.39 0 0 0 -0.68,-3.5 2.16,2.16 0 0 0 -2,-1.25 2.19,2.19 0 0 0 -2,1 5.59,5.59 0 0 0 -0.67,3 7.42,7.42 0 0 0 0.7,3.56 2.18,2.18 0 0 0 2,1.28 z" /><path d="m 271.68,138.47032 a 2.47,2.47 0 0 0 0.78,-1.07 4.24,4.24 0 0 0 0.24,-1.53 v -8.68 a 4.24,4.24 0 0 0 -0.24,-1.53 2.75,2.75 0 0 0 -0.78,-1.11 h 1.38 c 1,0 1.84,0 2.59,-0.08 0.75,-0.08 1.49,-0.12 2.17,-0.23 l 0.11,1.42 a 7.79,7.79 0 0 1 1.83,-1.08 5.21,5.21 0 0 1 1.83,-0.34 4.84,4.84 0 0 1 5.16,5.17 v 6.46 a 4.25,4.25 0 0 0 0.23,1.53 2.73,2.73 0 0 0 0.78,1.07 h -7.26 a 2.84,2.84 0 0 0 0.78,-1.07 4.48,4.48 0 0 0 0.23,-1.53 v -4.49 a 8.24,8.24 0 0 0 -0.44,-3.23 1.46,1.46 0 0 0 -1.43,-0.93 1.37,1.37 0 0 0 -1.35,0.77 9.82,9.82 0 0 0 -0.36,3.39 v 4.49 a 4.24,4.24 0 0 0 0.24,1.53 2.84,2.84 0 0 0 0.78,1.07 z" /><path d="m 140.37,138.98032 q 7.2,-11.72 9.17,-15.45 c 1.31,-2.5 2,-4.2 2,-5.08 a 2.57,2.57 0 0 0 -0.81,-2.05 3.42,3.42 0 0 0 -2.33,-0.7 7,7 0 0 0 -2.61,0.59 20.87,20.87 0 0 0 -3.39,1.92 l 1.52,-5.39 c 1.61,-0.47 3,-0.82 4.12,-1 a 16.5,16.5 0 0 1 3.06,-0.33 8.93,8.93 0 0 1 6,1.93 6.32,6.32 0 0 1 2.25,5.09 12.2,12.2 0 0 1 -1.48,5.12 115.81,115.81 0 0 1 -6.87,11 c 1,0.12 1.71,0.21 2.25,0.26 a 13.06,13.06 0 0 0 1.46,0.08 10.87,10.87 0 0 0 2.85,-0.39 23.61,23.61 0 0 0 3.65,-1.49 l -1.75,5.88 z" /><path d="m 167.5,119.71032 h -0.68 l -2.54,-1.3 a 2.09,2.09 0 0 1 -0.54,-0.39 0.6,0.6 0 0 1 -0.14,-0.41 0.68,0.68 0 0 1 0.2,-0.5 0.7,0.7 0 0 1 0.52,-0.2 0.93,0.93 0 0 1 0.46,0.12 3.25,3.25 0 0 1 0.6,0.52 z m 2,4.5 h -4.57 a 0.88,0.88 0 0 1 0,0.14 v 0.11 a 1.86,1.86 0 0 0 0.58,1.46 2.29,2.29 0 0 0 1.61,0.52 3.66,3.66 0 0 0 1,-0.17 10.47,10.47 0 0 0 1.43,-0.58 l -0.53,1.7 a 10.53,10.53 0 0 1 -1.42,0.38 6.46,6.46 0 0 1 -1.22,0.12 4.6,4.6 0 0 1 -3.09,-1 3.42,3.42 0 0 1 -1.13,-2.69 3.6,3.6 0 0 1 1.1,-2.69 3.82,3.82 0 0 1 2.76,-1.06 3.31,3.31 0 0 1 2.49,1 3.51,3.51 0 0 1 1,2.56 z m -2.61,-1.29 a 1.15,1.15 0 0 0 -0.24,-0.79 0.81,0.81 0 0 0 -0.68,-0.28 0.92,0.92 0 0 0 -0.71,0.28 1.12,1.12 0 0 0 -0.26,0.79 z" /><path d="m 169.58,127.69032 a 1.41,1.41 0 0 0 0.37,-0.55 1.94,1.94 0 0 0 0.13,-0.75 v -4.33 a 2,2 0 0 0 -0.13,-0.76 1.37,1.37 0 0 0 -0.37,-0.56 h 0.67 c 0.51,0 0.95,0 1.33,0 0.38,0 0.72,-0.08 1.06,-0.14 l 0.05,0.7 a 3.46,3.46 0 0 1 0.92,-0.53 3,3 0 0 1 1,-0.17 2.89,2.89 0 0 1 1.2,0.25 3.16,3.16 0 0 1 1,0.73 6,6 0 0 1 1.25,-0.75 3.22,3.22 0 0 1 1.18,-0.23 2.44,2.44 0 0 1 2.58,2.58 v 3.26 a 2.2,2.2 0 0 0 0.11,0.75 1.42,1.42 0 0 0 0.41,0.55 h -3.61 a 1.44,1.44 0 0 0 0.4,-0.6 2,2 0 0 0 0.12,-0.75 v -2.48 a 3,3 0 0 0 -0.23,-1.41 0.92,0.92 0 0 0 -1.52,0 3,3 0 0 0 -0.22,1.33 v 2.59 a 2.2,2.2 0 0 0 0.11,0.75 1.53,1.53 0 0 0 0.41,0.55 h -3.67 a 1.41,1.41 0 0 0 0.37,-0.55 1.94,1.94 0 0 0 0.13,-0.75 v -2.48 a 3,3 0 0 0 -0.24,-1.41 0.81,0.81 0 0 0 -0.76,-0.42 0.8,0.8 0 0 0 -0.75,0.39 2.82,2.82 0 0 0 -0.22,1.33 v 2.59 a 2,2 0 0 0 0.12,0.75 1.47,1.47 0 0 0 0.39,0.55 z" /><path d="m 189.66,124.21032 h -4.53 c 0,0 0,0.07 0,0.14 v 0.11 a 1.89,1.89 0 0 0 0.57,1.46 2.33,2.33 0 0 0 1.61,0.52 3.55,3.55 0 0 0 1,-0.17 10,10 0 0 0 1.44,-0.58 l -0.53,1.7 a 10.94,10.94 0 0 1 -1.42,0.38 6.54,6.54 0 0 1 -1.22,0.12 4.56,4.56 0 0 1 -3.09,-1 3.42,3.42 0 0 1 -1.13,-2.69 3.6,3.6 0 0 1 1.09,-2.69 3.84,3.84 0 0 1 2.77,-1.06 3.28,3.28 0 0 1 2.48,1 3.47,3.47 0 0 1 1,2.56 z m -2.61,-1.29 a 1.15,1.15 0 0 0 -0.23,-0.79 0.85,0.85 0 0 0 -0.69,-0.28 0.9,0.9 0 0 0 -0.7,0.28 1.17,1.17 0 0 0 -0.27,0.79 z" /><rect height="0.94" width="23.91" y="129.39378" x="164.2578" /></g><g style="fill:#ffffff" ><path d="m 127.8,8.71032 a 2.23,2.23 0 0 1 2.07,1.43 l 3.19,7.699999 a 2.27,2.27 0 0 0 2.07,1.3 h 118.8 a 2.2,2.2 0 0 0 2,-1.26 l 3.36,-6.999999 a 2.92,2.92 0 0 1 2.52,-1.49 l 13.42,-0.07 v 0 a 1.39,1.39 0 0 1 1.19,2.08 l -3.75,6.739999 a 0.87,0.87 0 0 0 0.76,1.29 v 0 l 61.8,-0.09 h 0.12 a 2.43,2.43 0 0 1 2.5,2.25 l 0.1,9.749997 a 2.22,2.22 0 0 0 1.84,1.88 v 0 l 123.39,-0.08 v 0 c 1.45,0 2.4,1.81 2.4,2.43 l 0.16,26.070005 a 5.09,5.09 0 0 0 3.94,4.91 c 6.75,1.59 7,5.45 7,5.45 0,0 0,4.92 0,8 a 2.24,2.24 0 0 0 0.43,1.29 c 8.11,11.34 0.92,24.819999 -11.24,25.999999 h -73.13 a 2.2,2.2 0 0 0 -1.94,1.14 c -4.82,9 -16.1,13.47 -27.32,13.47 -11.22,0 -22.47,-4.53 -27.06,-13.6 a 2.22,2.22 0 0 0 -2,-1.19 v 0 l -37.78,0.18 a 1.36,1.36 0 0 0 -1.22,1.5 l 0.09,34 c 0.09,1.07 -1.43,2.16 -2.76,2.16 h -0.05 l -153,0.09 h -0.1 a 3.14,3.14 0 0 1 -3.09,-2.73 c 0,-7.66 0.06,-18.36 0.08,-24.25 a 2.24,2.24 0 0 0 -2.24,-2.25 2.19,2.19 0 0 0 -1.16,0.34 c -3.34,2.06 -8.73,4.72 -14.38,4.72 -8.8,0 -15.53,-3 -19,-12.25 a 2.21,2.21 0 0 0 -2.08,-1.46 v 0 l -90.08,0.28 H 7.63 a 2.93,2.93 0 0 1 -2.66,-2.16 L 4.9,56.760321 c 0,-0.87 0.92,-2.24 1.79,-2.35 l 20.63,-0.07 h 0.09 a 1.23,1.23 0 0 0 1.3,-1.22 l 0.07,-16.610005 c 0,-2 0.51,-3.07 2.22,-3.11 l 67.39,-0.2 a 2.24,2.24 0 0 0 2.1,-1.47 l 5.45,-14.999997 a 2,2 0 0 0 0.14,-0.73 l 0.08,-4.999999 a 2.23,2.23 0 0 1 2.23,-2.2 l 19.4,-0.11 v 0 m 0,-5 v 0 l -19.43,0.11 a 7.28,7.28 0 0 0 -7.23,7.14 v 4.519999 l -4.64,12.75 -65.46,0.19 h -0.11 c -3.34,0.08 -7.19,2.269997 -7.1,8.149997 v 12.8 l -17.05,0.06 H 6.46 6.16 c -3.61,0.45 -6,4.000005 -6.16,7.070005 v 0.25 l 0.07,48.519999 v 0.21 0.21 c 0.34,4 4.29,6.73 7.64,6.73 h 0.13 c 2.34,0 71.63,-0.23 88.15,-0.27 4.06,9.21 11.58,13.7 22.91,13.7 a 30.18,30.18 0 0 0 12.76,-3.16 c 0,5.93 0,13.67 -0.06,19.59 v 0.29 a 8.1,8.1 0 0 0 8.08,7.45 h 0.17 l 152.93,-0.09 h 0.05 a 8.25,8.25 0 0 0 6,-2.63 6.49,6.49 0 0 0 1.79,-4.66 l -0.08,-30.42 32.38,-0.15 c 5.51,9.16 17.07,14.78 30.66,14.78 13.59,0 25.14,-5.56 30.85,-14.61 h 71.35 a 6.51,6.51 0 0 0 0.77,0 21,21 0 0 0 15.31,-33.179999 c 0,-3 0,-7.1 0,-7.1 v -0.31 c -0.05,-0.77 -0.8,-7.62 -10.86,-10 -0.05,0 -0.08,0 -0.08,-0.07 l -0.16,-26.070005 c 0,-3.09 -2.84,-7.399997 -7.4,-7.399997 h -0.23 l -120.21,0.09 -0.07,-6.67 a 7.44,7.44 0 0 0 -7.5,-7.21 h -0.22 l -54.64,0.08 0.25,-0.45 A 6.38,6.38 0 0 0 275.21,4.38032 l -13.46,0.07 a 7.94,7.94 0 0 0 -6.85,4 l -0.08,0.14 -0.07,0.15 -2.62,5.479999 -115.15,-0.08 -2.49,-5.999999 a 7.21,7.21 0 0 0 -6.69,-4.47 z" /><path d="m 447.03,92.490321 a 42.77,42.77 0 0 0 6.56,2.57 19.32,19.32 0 0 0 5.33,0.93 4.07,4.07 0 0 0 2.48,-0.69 2.16,2.16 0 0 0 1,-1.8 2.24,2.24 0 0 0 -0.73,-1.72 9,9 0 0 0 -2.95,-1.43 c -4.53,-1.47 -7.47,-2.88 -8.85,-4.22 a 7.33,7.33 0 0 1 -2.06,-5.47 8.39,8.39 0 0 1 3.56,-7.13 c 2.38,-1.73 5.63,-2.61 9.77,-2.61 a 34.11,34.11 0 0 1 4.86,0.35 37,37 0 0 1 4.75,1 l -0.05,6.37 a 16.17,16.17 0 0 0 -3.81,-1.65 13.31,13.31 0 0 0 -3.72,-0.55 4.83,4.83 0 0 0 -2.49,0.59 1.73,1.73 0 0 0 -1,1.46 c 0,1.05 1.22,1.91 3.68,2.59 a 26,26 0 0 1 2.53,0.75 14.54,14.54 0 0 1 6,3.72 7.79,7.79 0 0 1 2,5.34 8.51,8.51 0 0 1 -4,7.44 q -3.93,2.669999 -10.93,2.669999 a 36.62,36.62 0 0 1 -5.15,-0.37 51.31,51.31 0 0 1 -5.53,-1.129999 z" /><path d="m 414.18,100.19032 a 5.67,5.67 0 0 0 1.58,-2.199999 8.47,8.47 0 0 0 0.49,-3.07 v -17.56 a 8.5,8.5 0 0 0 -0.5,-3.12 6,6 0 0 0 -1.57,-2.24 h 2.77 q 3,0 5.25,-0.15 c 1.53,-0.11 3,-0.27 4.39,-0.49 l 0.24,2.91 a 15.08,15.08 0 0 1 3.71,-2.21 11.12,11.12 0 0 1 11.32,2.15 10.36,10.36 0 0 1 2.82,7.64 v 13.07 a 8.73,8.73 0 0 0 0.47,3.07 5.86,5.86 0 0 0 1.57,2.199999 H 432 a 5.6,5.6 0 0 0 1.59,-2.199999 8.73,8.73 0 0 0 0.47,-3.07 v -9.11 q 0,-4.68 -0.88,-6.53 a 3,3 0 0 0 -2.92,-1.86 2.72,2.72 0 0 0 -2.68,1.55 q -0.75,1.54 -0.75,6.84 v 9.11 a 8.49,8.49 0 0 0 0.48,3.07 5.89,5.89 0 0 0 1.58,2.199999 z" /><path d="m 380.96,86.420321 a 14.17,14.17 0 0 1 4.88,-10.95 17.53,17.53 0 0 1 12.19,-4.42 16.43,16.43 0 0 1 11.61,4.3 13.67,13.67 0 0 1 4.65,10.46 14.1,14.1 0 0 1 -4.89,11 17.53,17.53 0 0 1 -12.17,4.329999 16.54,16.54 0 0 1 -11.64,-4.259999 13.69,13.69 0 0 1 -4.63,-10.46 z m 16.69,8.61 a 4.38,4.38 0 0 0 4,-2.11 11.77,11.77 0 0 0 1.34,-6.26 14.81,14.81 0 0 0 -1.39,-7.11 4.36,4.36 0 0 0 -4,-2.5 4.49,4.49 0 0 0 -4,2.09 11.37,11.37 0 0 0 -1.36,6.16 14.92,14.92 0 0 0 1.42,7.19 4.41,4.41 0 0 0 3.99,2.54 z" /><path d="m 360.69,80.720321 a 8.88,8.88 0 0 0 0.92,4.49 3,3 0 0 0 2.69,1.51 3.18,3.18 0 0 0 2.59,-1.06 4.62,4.62 0 0 0 0.91,-3.08 8.48,8.48 0 0 0 -0.91,-4.39 2.89,2.89 0 0 0 -2.65,-1.5 3.33,3.33 0 0 0 -2.63,1.06 4.42,4.42 0 0 0 -0.92,2.97 z m 20.81,-9.36 -2.56,5.63 h -3.25 a 8.36,8.36 0 0 1 1.8,2.53 7.42,7.42 0 0 1 0.54,2.94 8.56,8.56 0 0 1 -2.09,5.87 10.64,10.64 0 0 1 -5.91,3.25 29.52,29.52 0 0 1 -4.37,0.56 q -3.33,0.21 -3.33,1.47 a 0.82,0.82 0 0 0 0.49,0.72 2.66,2.66 0 0 0 1.31,0.27 c 0.33,0 1.14,-0.07 2.42,-0.22 a 27.68,27.68 0 0 1 3.37,-0.24 13.74,13.74 0 0 1 8.44,2.42 7.44,7.44 0 0 1 3.24,6.239999 q 0,4.68 -4.58,7.44 -4.58,2.76 -12.49,2.75 c -4.86,0 -8.61,-0.64 -11.23,-1.89 -2.62,-1.25 -3.94,-3.07 -3.94,-5.41 a 4.42,4.42 0 0 1 1.86,-3.53 7.11,7.11 0 0 1 4.58,-1.5 8.87,8.87 0 0 1 1.69,0.17 q 0.93,0.17 2.67,0.66 a 4.58,4.58 0 0 0 -1.83,1.22 2.47,2.47 0 0 0 -0.59,1.62 2.85,2.85 0 0 0 1.54,2.48 7.39,7.39 0 0 0 4,1 8,8 0 0 0 4.86,-1.26 4.4,4.4 0 0 0 1.67,-3.72 3.47,3.47 0 0 0 -1.53,-2.999999 7.25,7.25 0 0 0 -4.27,-1.09 c -0.54,0 -1.29,0 -2.26,0.12 -0.97,0.12 -1.65,0.11 -2.08,0.11 a 4.75,4.75 0 0 1 -3.53,-1.28 9.33,9.33 0 0 1 -2,-4.36 l 3.84,-1.83 a 14.29,14.29 0 0 1 -5.47,-4 8.53,8.53 0 0 1 -1.81,-5.41 9.56,9.56 0 0 1 3.69,-7.61 13.83,13.83 0 0 1 9.22,-3.11 c 0.56,0 1.72,0.06 3.48,0.16 1.76,0.1 3.26,0.14 4.45,0.14 h 4.1 c 0.6,0 1.37,0 2.29,-0.06 0.92,-0.06 2.12,-0.14 3.57,-0.25 z" /><path d="m 335.87,86.960321 a 14.68,14.68 0 0 0 -4.5,2.31 3.34,3.34 0 0 0 -1.13,2.54 3.21,3.21 0 0 0 1.11,2.58 4.63,4.63 0 0 0 3.08,0.94 h 0.47 l -2.53,5.269999 c -0.89,0.07 -1.61,0.11 -2.18,0.14 h -1.39 a 10.41,10.41 0 0 1 -7.18,-2.489999 8.09,8.09 0 0 1 -2.82,-6.34 7.32,7.32 0 0 1 2.08,-5.36 12.83,12.83 0 0 1 6.28,-3.11 c 0.78,-0.19 1.84,-0.41 3.17,-0.66 3.73,-0.73 5.6,-1.85 5.6,-3.34 a 2.33,2.33 0 0 0 -1,-2 4.74,4.74 0 0 0 -2.83,-0.71 17.51,17.51 0 0 0 -3.64,0.41 25.75,25.75 0 0 0 -4,1.25 l 2.83,-6.35 a 34,34 0 0 1 3.57,-0.81 20.52,20.52 0 0 1 3.17,-0.26 21,21 0 0 1 6.15,0.78 9.78,9.78 0 0 1 4.11,2.37 8.43,8.43 0 0 1 2,3.38 24.31,24.31 0 0 1 0.61,6.48 v 7.16 a 4.37,4.37 0 0 0 0.9,3.12 6.37,6.37 0 0 0 3.6,1.3 l -2.3,4.999999 c -0.79,0.07 -1.47,0.11 -2,0.13 -0.53,0.02 -1,0 -1.34,0 a 10.42,10.42 0 0 1 -7.12,-2.409999 8,8 0 0 1 -2.75,-6.36 z" /><path d="m 299.94,100.19032 a 5.67,5.67 0 0 0 1.58,-2.199999 8.49,8.49 0 0 0 0.48,-3.07 v -17.56 a 8.85,8.85 0 0 0 -0.48,-3.17 5.68,5.68 0 0 0 -1.52,-2.19 h 2.71 q 3,0 5.25,-0.15 c 1.53,-0.11 3,-0.27 4.39,-0.49 l 0.23,3.86 a 6.27,6.27 0 0 1 2.52,-2.84 7.81,7.81 0 0 1 4,-1 c 0.24,0 0.55,0 0.94,0.05 l 1.45,0.13 v 7.18 c -0.61,-0.06 -1.19,-0.1 -1.73,-0.12 -0.54,-0.02 -1,-0.05 -1.45,-0.05 q -3.07,0 -4.41,1.44 -1.34,1.44 -1.33,4.78 v 10.09 a 8.26,8.26 0 0 0 0.49,3.07 5.86,5.86 0 0 0 1.57,2.199999 z" /><path d="m 264.66,84.320321 c 0.6,-1.41 5.16,-7.22 11.25,-7.36 0.07,2.21 0.1,6.83 0.1,6.83 0,0 -2.62,0 -3.16,0.4 a 21.38,21.38 0 0 1 2.13,4.41 4,4 0 0 1 -0.88,4.19 c -1.21,1.43 -3,1.32 -4.37,1.31 a 8,8 0 0 1 -5.09,-2.38 c 0,-3.36 -0.01,-4.98 0.02,-7.4 z" /><path d="m 261.79,59.410321 c 0,0 13.23,-0.08 17,0 3.77,0.08 10.55,1.07 14.53,4.07 4.38,3.29 7.61,7.2 7.61,15.28 0,8.08 -2.64,15.43 -10.17,19.17 -0.11,-3.05 -2,-7 -3.76,-8.54 4.93,-7.25 0.69,-22.33 -6.34,-23.27 -0.89,-0.12 -4.51,0 -4.51,0 0,0 -0.18,1.86 -0.13,7.61 -4,-1.74 -8.91,-1.11 -12.1,-0.23 v -10.52 z" /><path d="m 192.95,92.490321 a 42.64,42.64 0 0 0 6.56,2.58 19.26,19.26 0 0 0 5.33,0.92 4.07,4.07 0 0 0 2.48,-0.69 2.13,2.13 0 0 0 1,-1.79 2.23,2.23 0 0 0 -0.74,-1.72 8.71,8.71 0 0 0 -2.95,-1.44 q -6.78,-2.21 -8.84,-4.22 a 7.27,7.27 0 0 1 -2.07,-5.47 8.35,8.35 0 0 1 3.57,-7.12 q 3.56,-2.61 9.76,-2.61 a 35.42,35.42 0 0 1 4.86,0.34 36.69,36.69 0 0 1 4.75,1 l -0.05,6.38 a 16.64,16.64 0 0 0 -3.81,-1.66 13.63,13.63 0 0 0 -3.72,-0.55 4.67,4.67 0 0 0 -2.48,0.6 1.69,1.69 0 0 0 -1,1.45 c 0,1.05 1.23,1.92 3.69,2.59 1.09,0.28 1.93,0.53 2.53,0.75 a 14.56,14.56 0 0 1 6,3.72 7.79,7.79 0 0 1 2,5.35 8.52,8.52 0 0 1 -3.95,7.43 q -3.94,2.669999 -10.94,2.669999 a 36.48,36.48 0 0 1 -5.14,-0.37 50.83,50.83 0 0 1 -5.53,-1.129999 z" /><path d="m 161.5,100.19032 a 5.6,5.6 0 0 0 1.58,-2.199999 8.4,8.4 0 0 0 0.48,-3.06 v -17.56 a 8.38,8.38 0 0 0 -0.5,-3.13 5.81,5.81 0 0 0 -1.56,-2.23 h 2.77 c 2,0 3.72,-0.05 5.25,-0.16 1.53,-0.11 3,-0.27 4.39,-0.48 l 0.23,2.9 a 14.76,14.76 0 0 1 3.72,-2.2 10,10 0 0 1 3.7,-0.7 10.22,10.22 0 0 1 7.61,2.84 10.34,10.34 0 0 1 2.83,7.64 v 13.08 a 8.63,8.63 0 0 0 0.47,3.06 5.65,5.65 0 0 0 1.56,2.199999 h -14.72 a 5.56,5.56 0 0 0 1.6,-2.199999 8.63,8.63 0 0 0 0.47,-3.06 v -9.11 c 0,-3.13 -0.3,-5.3 -0.88,-6.53 a 3,3 0 0 0 -2.92,-1.86 2.73,2.73 0 0 0 -2.69,1.54 q -0.75,1.56 -0.75,6.85 v 9.11 a 8.17,8.17 0 0 0 0.49,3.06 5.78,5.78 0 0 0 1.57,2.199999 z" /><path d="m 129.48,86.430321 a 14.17,14.17 0 0 1 4.87,-11 17.54,17.54 0 0 1 12.19,-4.42 16.44,16.44 0 0 1 11.61,4.3 13.7,13.7 0 0 1 4.66,10.47 14.06,14.06 0 0 1 -4.89,10.95 17.54,17.54 0 0 1 -12.17,4.409999 16.59,16.59 0 0 1 -11.62,-4.259999 13.69,13.69 0 0 1 -4.65,-10.45 z m 16.65,8.61 a 4.4,4.4 0 0 0 4,-2.11 11.93,11.93 0 0 0 1.34,-6.27 14.93,14.93 0 0 0 -1.39,-7.11 4.37,4.37 0 0 0 -4,-2.5 4.49,4.49 0 0 0 -4,2.1 11.45,11.45 0 0 0 -1.35,6.15 14.86,14.86 0 0 0 1.42,7.19 4.41,4.41 0 0 0 3.98,2.55 z" /><path d="m 116.13,64.240321 a 5.13,5.13 0 0 1 1.59,-3.81 5.58,5.58 0 0 1 7.78,0 5.3,5.3 0 0 1 0,7.62 5.3,5.3 0 0 1 -3.86,1.58 5.39,5.39 0 0 1 -3.91,-1.56 5.16,5.16 0 0 1 -1.6,-3.83 z m -1.38,7.77 h 3 c 1.95,0 3.7,-0.05 5.23,-0.16 1.53,-0.11 3,-0.27 4.38,-0.48 v 27.12 a 21.85,21.85 0 0 1 -0.85,7.139999 7.38,7.38 0 0 1 -2.89,3.63 16.94,16.94 0 0 1 -5,2.34 27.3,27.3 0 0 1 -6.31,0.94 15,15 0 0 0 3.48,-4.88 19.09,19.09 0 0 0 1,-7.06 V 77.370321 a 8.93,8.93 0 0 0 -0.49,-3.18 5.53,5.53 0 0 0 -1.6,-2.18 z" /><path d="m 82.13,100.19032 a 5.6,5.6 0 0 0 1.58,-2.199999 8.4,8.4 0 0 0 0.48,-3.06 v -17.56 a 8.38,8.38 0 0 0 -0.5,-3.13 5.81,5.81 0 0 0 -1.56,-2.23 h 2.77 c 2,0 3.72,-0.05 5.25,-0.16 1.53,-0.11 3,-0.27 4.39,-0.48 l 0.23,2.9 a 14.76,14.76 0 0 1 3.72,-2.2 10,10 0 0 1 3.7,-0.7 10.22,10.22 0 0 1 7.61,2.84 10.34,10.34 0 0 1 2.83,7.64 v 13.08 a 8.63,8.63 0 0 0 0.47,3.06 5.65,5.65 0 0 0 1.56,2.199999 H 99.91 a 5.56,5.56 0 0 0 1.6,-2.199999 8.63,8.63 0 0 0 0.47,-3.06 v -9.11 c 0,-3.13 -0.3,-5.3 -0.88,-6.53 a 3,3 0 0 0 -2.92,-1.86 2.73,2.73 0 0 0 -2.69,1.54 q -0.75,1.56 -0.75,6.85 v 9.11 a 8.17,8.17 0 0 0 0.49,3.06 5.7,5.7 0 0 0 1.58,2.199999 z" /><path d="m 50.13,86.430321 a 14.18,14.18 0 0 1 4.88,-11 17.5,17.5 0 0 1 12.12,-4.38 16.44,16.44 0 0 1 11.61,4.3 13.7,13.7 0 0 1 4.66,10.47 14.06,14.06 0 0 1 -4.89,10.95 17.54,17.54 0 0 1 -12.16,4.369999 16.55,16.55 0 0 1 -11.64,-4.269999 13.67,13.67 0 0 1 -4.58,-10.44 z m 16.69,8.61 a 4.4,4.4 0 0 0 4,-2.11 11.93,11.93 0 0 0 1.34,-6.27 14.81,14.81 0 0 0 -1.39,-7.11 4.37,4.37 0 0 0 -4,-2.5 4.48,4.48 0 0 0 -4,2.1 11.35,11.35 0 0 0 -1.36,6.15 14.86,14.86 0 0 0 1.42,7.19 4.42,4.42 0 0 0 3.94,2.55 z" /><path d="m 9.75,100.37032 a 6.89,6.89 0 0 0 1.83,-2.599999 14,14 0 0 0 0.55,-4.53 v -26 a 13.78,13.78 0 0 0 -0.53,-4.5 7,7 0 0 0 -1.85,-2.6 h 16.38 q 11.14,0 17.34,5.34 6.2,5.34 6.22,14.85 a 21.79,21.79 0 0 1 -1.78,8.92 19.46,19.46 0 0 1 -5.22,7 15.66,15.66 0 0 1 -6.06,3.16 33.86,33.86 0 0 1 -8.94,0.999999 z m 13.56,-6.459999 a 18.86,18.86 0 0 0 1.93,0.39 13.06,13.06 0 0 0 1.87,0.13 9.41,9.41 0 0 0 7.77,-3.75 c 2,-2.5 3,-5.84 3,-10 0,-4.16 -1,-7.65 -2.9,-10.11 a 9.38,9.38 0 0 0 -7.84,-3.7 c -0.57,0 -1.18,0 -1.81,0.09 -0.63,0.09 -1.3,0.14 -2,0.25 z" /><path d="m 308.06,45.720316 a 44.79,44.79 0 0 0 6.56,2.58 19.19,19.19 0 0 0 5.31,0.92 4.14,4.14 0 0 0 2.5,-0.69 2.12,2.12 0 0 0 0.94,-1.79 2.22,2.22 0 0 0 -0.73,-1.71 8.53,8.53 0 0 0 -2.94,-1.45 c -4.53,-1.46 -7.47,-2.86 -8.85,-4.19 a 7.34,7.34 0 0 1 -2.05,-5.47 8.34,8.34 0 0 1 3.55,-7.119997 q 3.55,-2.61 9.76,-2.61 a 33.87,33.87 0 0 1 4.85,0.35 36.63,36.63 0 0 1 4.75,0.95 l -0.05,6.369997 a 17.1,17.1 0 0 0 -3.79,-1.65 13.75,13.75 0 0 0 -3.73,-0.549997 4.61,4.61 0 0 0 -2.47,0.609997 1.67,1.67 0 0 0 -1,1.45 q 0,1.56 3.67,2.57 c 1.1,0.29 1.94,0.54 2.53,0.76 a 14.23,14.23 0 0 1 6,3.73 7.7,7.7 0 0 1 2,5.32 8.55,8.55 0 0 1 -3.94,7.440005 q -3.94,2.66 -10.93,2.66 a 36.59,36.59 0 0 1 -5.14,-0.37 51.16,51.16 0 0 1 -5.52,-1.13 z" /><path d="m 307.3,39.330316 h -18.49 a 3.81,3.81 0 0 1 0,0.52 c 0,0.23 0,0.39 0,0.46 a 7.59,7.59 0 0 0 2.32,5.93 9.26,9.26 0 0 0 6.49,2.15 15.42,15.42 0 0 0 4.2,-0.7 43.06,43.06 0 0 0 5.85,-2.34 l -2.18,6.890005 a 43.94,43.94 0 0 1 -5.76,1.53 25.58,25.58 0 0 1 -4.93,0.49 q -7.9,0 -12.52,-4 a 13.78,13.78 0 0 1 -4.58,-10.850005 14.58,14.58 0 0 1 4.43,-10.939997 15.57,15.57 0 0 1 11.25,-4.28 13.41,13.41 0 0 1 10.05,4 14.13,14.13 0 0 1 3.91,10.359997 z m -10.55,-5.19 a 4.84,4.84 0 0 0 -0.94,-3.24 3.44,3.44 0 0 0 -2.79,-1.129997 3.66,3.66 0 0 0 -2.89,1.109997 5,5 0 0 0 -1.08,3.26 z" /><path d="m 277.26,39.330316 h -18.48 c 0,0.11 0,0.29 0,0.52 0,0.23 0,0.39 0,0.46 a 7.62,7.62 0 0 0 2.35,5.93 9.29,9.29 0 0 0 6.5,2.15 15.42,15.42 0 0 0 4.2,-0.7 43,43 0 0 0 5.84,-2.34 l -2.17,6.890005 a 43.94,43.94 0 0 1 -5.76,1.53 25.58,25.58 0 0 1 -4.93,0.49 q -7.9,0 -12.52,-4 a 13.78,13.78 0 0 1 -4.59,-10.850005 14.62,14.62 0 0 1 4.41,-10.919997 15.57,15.57 0 0 1 11.25,-4.28 13.42,13.42 0 0 1 10.06,4 14.12,14.12 0 0 1 3.9,10.359997 z m -10.54,-5.19 a 4.84,4.84 0 0 0 -0.95,-3.24 3.41,3.41 0 0 0 -2.79,-1.129997 3.69,3.69 0 0 0 -2.85,1.109997 5,5 0 0 0 -1.11,3.26 z" /><path d="m 270.7,13.52032 c -0.33,-0.78 -1.75,-0.67 -3.72,-0.72 -1.97,-0.05 -3.54,-0.1 -4.17,0.3 -0.6,0.09 -3.64,6.749999 -3.06,7.639999 0.68,0.47 4.85,0.44 5.57,0.15 0.9,-0.75 6.23,-7.07 5.38,-7.369999 z" /><path d="m 248.7,46.070316 -0.21,0.76 -0.56,2 a 6.48,6.48 0 0 0 -1.62,-1.72 m -21.3,3.150005 c -6.65,-7.630005 -3.26,-18.880005 -0.05,-21.740002 3.21,-2.86 7.45,-4.28 12.63,-4.28 0.79,0 1.72,0.06 2.8,0.17 1.08,0.11 2.41,0.27 3.93,0.5 v 7.059997 a 19.75,19.75 0 0 0 -3.32,-1.45 8.41,8.41 0 0 0 -2.55,-0.459997 5.86,5.86 0 0 0 -4.82,2.169997 9.16,9.16 0 0 0 -1.76,6 c 0,0.76 0.58,5 1.42,6.23 a 13.66,13.66 0 0 0 -8.28,5.840005" /><path d="m 188.94,53.420321 a 5.7,5.7 0 0 0 1.59,-2.2 8.65,8.65 0 0 0 0.47,-3.070005 v -17.53 a 8.52,8.52 0 0 0 -0.5,-3.129997 5.77,5.77 0 0 0 -1.56,-2.23 h 2.76 c 2,0 3.73,0 5.26,-0.14 1.53,-0.14 3,-0.28 4.38,-0.49 l 0.24,2.89 a 15.16,15.16 0 0 1 3.7,-2.2 11.19,11.19 0 0 1 11.31,2.14 10.36,10.36 0 0 1 2.82,7.639997 v 13.04 a 8.65,8.65 0 0 0 0.47,3.070005 5.72,5.72 0 0 0 1.56,2.2 h -14.69 a 5.67,5.67 0 0 0 1.58,-2.2 8.43,8.43 0 0 0 0.47,-3.070005 v -9.08 q 0,-4.7 -0.88,-6.54 a 3,3 0 0 0 -2.91,-1.86 2.76,2.76 0 0 0 -2.7,1.57 q -0.74,1.53 -0.73,6.83 v 9.08 a 8.67,8.67 0 0 0 0.46,3.070005 6.27,6.27 0 0 0 1.59,2.2 z" /><path d="m 174.05,40.200316 a 15.46,15.46 0 0 0 -4.49,2.31 3.34,3.34 0 0 0 -1.12,2.55 3.21,3.21 0 0 0 1.12,2.58 4.66,4.66 0 0 0 3,0.92 h 0.57 l -2.52,5.270005 c -0.89,0.07 -1.61,0.12 -2.18,0.14 h -1.38 a 10.48,10.48 0 0 1 -7.2,-2.49 8.12,8.12 0 0 1 -2.79,-6.340005 7.27,7.27 0 0 1 2.09,-5.35 12.71,12.71 0 0 1 6.25,-3.1 q 1.18,-0.28 3.18,-0.66 5.58,-1.1 5.58,-3.33 a 2.31,2.31 0 0 0 -1,-2 4.69,4.69 0 0 0 -2.82,-0.699997 17.58,17.58 0 0 0 -3.64,0.409997 25.14,25.14 0 0 0 -4,1.24 l 2.82,-6.339997 a 34.4,34.4 0 0 1 3.56,-0.81 20.62,20.62 0 0 1 3.17,-0.26 20.85,20.85 0 0 1 6.14,0.78 9.76,9.76 0 0 1 4.11,2.37 8.16,8.16 0 0 1 2,3.359997 23.84,23.84 0 0 1 0.62,6.48 v 7.13 a 4.36,4.36 0 0 0 0.91,3.12 6.38,6.38 0 0 0 3.58,1.3 l -2.29,5.000005 c -0.78,0.06 -1.45,0.1 -2,0.12 -0.55,0.02 -1,0 -1.35,0 a 10.51,10.51 0 0 1 -7.14,-2.4 8.12,8.12 0 0 1 -2.73,-6.370005 z" /><path d="m 151.22,54.380321 a 14.21,14.21 0 0 1 -6.61,-2.92 15.84,15.84 0 0 1 -4.09,-6.400005 l -5.43,-14 -0.09,-0.26 a 18.48,18.48 0 0 0 -3.15,-5.499997 H 139 a 14.63,14.63 0 0 0 2.64,-0.2 9.6,9.6 0 0 0 2.23,-0.75 l 6.64,17.559997 3.62,-9.29 a 18,18 0 0 0 0.82,-2.519997 7.88,7.88 0 0 0 0.32,-1.8 4,4 0 0 0 -0.29,-1.45 6.67,6.67 0 0 0 -0.91,-1.59 h 8.55 z" /><path d="m 98.47,53.580321 a 22.86,22.86 0 0 0 2.25,-3 16.34,16.34 0 0 0 1.42,-3.000005 l 9.58,-26.999997 0.26,-0.73 a 7.63,7.63 0 0 0 0.64,-2.63 3.77,3.77 0 0 0 -0.42,-1.73 11,11 0 0 0 -1.58,-2.139999 h 14.44 l 11.56,32.999996 a 19.72,19.72 0 0 0 1.93,4.000005 17.82,17.82 0 0 0 2.57,3.21 h -17.68 a 11.31,11.31 0 0 0 1.76,-2.35 4.08,4.08 0 0 0 0.41,-1.790005 7.69,7.69 0 0 0 -0.08,-1.1 4,4 0 0 0 -0.2,-0.9 l -2.06,-5.79 h -12.29 l -1.9,5.54 a 16.06,16.06 0 0 0 -0.47,1.56 4.75,4.75 0 0 0 -0.09,0.86 4.58,4.58 0 0 0 0.48,2.000005 7.11,7.11 0 0 0 1.45,1.94 z m 14.51,-17.530005 h 8.38 l -4.17,-12.399997 z" /><path d="m 452.27,46.970316 c 0,-1.76 0.7,-3.09 2.46,-3.09 1.6,0 2,1.16 2,3.09 z m -3,1.19 c 0,2.880005 0.78,6.360005 5.5,6.360005 2.61,0 5,-1.48 5,-4.3 a 5.87,5.87 0 0 1 -4.14,1.92 3.11,3.11 0 0 1 -3.36,-3.060005 h 5.93 a 3.77,3.77 0 0 1 1.43,0.23 v -1.22 c 0,-4.06 -1.33,-6.31 -4.72,-6.31 -3.22,-0.01 -5.64,2.16 -5.64,6.36 z" /><path d="m 439.69,48.520316 c 0,-2.76 0.87,-4.5 2.83,-4.5 2.29,0 2.42,2 2.42,4 0,2.720005 -0.75,4.250005 -2.8,4.250005 -1.7,0.02 -2.45,-1.34 -2.45,-3.750005 z m 8.25,-11.09 -4.11,0.89 a 2.92,2.92 0 0 1 1.11,2.61 v 1.84 h -0.05 a 3,3 0 0 0 -2.7,-1 c -2.83,0 -5.5,2 -5.5,6.67 0,4.320005 2.29,6.080005 5.06,6.080005 a 4.28,4.28 0 0 0 3.45,-1.55 l 0.22,0.91 c 0,0.24 0.17,0.38 0.52,0.38 h 3.11 a 3.44,3.44 0 0 1 -1.11,-2.5 z" /><path d="m 423.74,54.520321 a 2.18,2.18 0 0 1 1.24,-0.44 c 0.62,0 1.9,0.44 3.31,0.44 3.44,0 5,-2.12 5,-4.25 a 3.52,3.52 0 0 0 -2.84,-3.420005 l -2.17,-0.63 c -1.11,-0.29 -1.5,-0.54 -1.5,-1.2 0,-0.66 0.62,-1.14 1.86,-1.14 a 4.28,4.28 0 0 1 3.82,2.5 v -4.61 a 1.43,1.43 0 0 1 -1.09,0.44 27.5,27.5 0 0 0 -3.06,-0.44 c -2.52,0 -4.38,1.5 -4.38,3.66 0,1.9 1.25,3 3.11,3.45 l 1.63,0.39 c 1.4,0.36 1.76,0.810005 1.76,1.670005 0,0.86 -0.93,1.49 -2.32,1.49 -1.39,0 -2.49,-0.41 -4.35,-2.530005 z" /><path d="m 415.58,46.970316 c 0,-1.76 0.7,-3.09 2.47,-3.09 1.59,0 2,1.16 2,3.09 z m -3,1.19 c 0,2.880005 0.78,6.360005 5.5,6.360005 2.61,0 5,-1.48 5,-4.3 a 5.85,5.85 0 0 1 -4.17,1.91 3.11,3.11 0 0 1 -3.36,-3.060005 h 5.94 a 3.72,3.72 0 0 1 1.42,0.23 v -1.22 c 0,-4.06 -1.33,-6.31 -4.72,-6.31 -3.19,0 -5.61,2.17 -5.61,6.37 z" /><path d="m 407.91,51.760321 a 3.44,3.44 0 0 1 -1.11,2.5 h 5.22 a 3.44,3.44 0 0 1 -1.11,-2.5 V 37.430316 l -4.11,0.89 a 2.89,2.89 0 0 1 1.11,2.61 z" /><path d="m 402.06,51.760321 a 3.44,3.44 0 0 1 -1.11,2.5 h 5.18 a 3.44,3.44 0 0 1 -1.11,-2.5 V 37.430316 l -4.11,0.89 a 2.89,2.89 0 0 1 1.11,2.61 z" /><path d="m 392.65,46.970316 c 0,-1.76 0.7,-3.09 2.47,-3.09 1.59,0 2,1.16 2,3.09 z m -3,1.19 c 0,2.880005 0.78,6.360005 5.5,6.360005 2.61,0 5,-1.48 5,-4.3 a 5.83,5.83 0 0 1 -4.17,1.91 3.11,3.11 0 0 1 -3.36,-3.060005 h 5.94 a 3.72,3.72 0 0 1 1.42,0.23 v -1.22 c 0,-4.06 -1.33,-6.31 -4.72,-6.31 -3.19,0 -5.61,2.17 -5.61,6.37 z" /><path d="m 386.36,37.430316 a 1.81,1.81 0 0 0 -1.88,1.75 1.89,1.89 0 1 0 1.88,-1.75 z m -1.38,14.330005 a 3.44,3.44 0 0 1 -1.11,2.5 h 5.26 a 3.44,3.44 0 0 1 -1.11,-2.5 V 41.760316 l -4.11,0.91 a 2.88,2.88 0 0 1 1.11,2.59 z" /><path d="m 382.87,41.770316 a 2.61,2.61 0 0 1 -1.08,0.27 c -0.69,0 -1.52,-0.27 -2.44,-0.27 -3.05,0 -5.42,2.16 -5.42,6.85 0,3.210005 1.28,5.900005 5.08,5.900005 3.39,0 4.43,-2.34 4.45,-4.44 a 4.94,4.94 0 0 1 -3.81,2 c -1.36,0 -2.72,-1 -2.72,-3.750005 0,-2.25 0.92,-4.36 2.61,-4.36 1.44,0 2.42,0.75 3.33,2.55 z" /><path d="m 370.64,37.430316 a 1.81,1.81 0 0 0 -1.88,1.75 1.89,1.89 0 0 0 3.77,0 1.82,1.82 0 0 0 -1.89,-1.75 z m -1.38,14.330005 a 3.47,3.47 0 0 1 -1.1,2.5 h 5.21 a 3.48,3.48 0 0 1 -1.11,-2.5 V 41.760316 l -4.1,0.91 a 2.89,2.89 0 0 1 1.1,2.59 z" /><path d="m 361.91,51.760321 a 3.4,3.4 0 0 1 -1.11,2.5 h 5.23 a 3.41,3.41 0 0 1 -1.12,-2.5 v -7.130005 h 1.14 a 2.37,2.37 0 0 1 1.2,0.27 l 0.75,-2.86 a 4,4 0 0 1 -1.64,0.36 h -1.47 v -0.86 c 0,-1 0.39,-1.82 1.46,-1.82 a 3.54,3.54 0 0 1 2.57,1.66 v -3.95 a 1.84,1.84 0 0 1 -1.15,0.34 c -0.39,0 -1.33,-0.14 -2.11,-0.14 -2.27,0 -3.75,1.59 -3.75,4.77 h -0.86 a 0.78,0.78 0 0 1 -0.75,-0.36 l -0.73,3 a 1.77,1.77 0 0 1 1.21,-0.44 h 1.13 z" /><path d="m 354.72,51.760321 a 3.37,3.37 0 0 1 -1.11,2.5 h 5.24 a 3.39,3.39 0 0 1 -1.13,-2.5 v -7.130005 h 1.14 a 2.42,2.42 0 0 1 1.21,0.27 l 0.75,-2.86 a 4.08,4.08 0 0 1 -1.65,0.36 h -1.46 v -0.86 c 0,-1 0.39,-1.82 1.45,-1.82 a 3.55,3.55 0 0 1 2.58,1.66 v -3.95 a 1.88,1.88 0 0 1 -1.16,0.34 c -0.39,0 -1.33,-0.14 -2.11,-0.14 -2.26,0 -3.75,1.59 -3.75,4.77 h -0.86 a 0.79,0.79 0 0 1 -0.75,-0.36 l -0.73,3 a 1.78,1.78 0 0 1 1.22,-0.44 h 1.12 z" /><path d="m 346.51,52.080321 c -2.37,0 -3.48,-2 -3.48,-6.060005 0,-4.53 1.28,-6.08 3.48,-6.08 2.2,0 3.49,1.55 3.49,6.08 0,4.120005 -1.13,6.060005 -3.49,6.060005 z m 0,-14.650005 c -3.66,0 -6.62,1.83 -6.62,8.59 0,5.380005 1.82,8.600005 6.62,8.600005 4.8,0 6.63,-3.22 6.63,-8.600005 -0.01,-6.76 -3.01,-8.59 -6.63,-8.59 z" /><path d="m 78.99,46.790316 c 0,-1.76 0.7,-3.1 2.47,-3.1 1.59,0 2,1.17 2,3.1 z m -3,1.19 c 0,2.890005 0.77,6.360005 5.49,6.360005 2.61,0 5,-1.47 5,-4.29 a 5.91,5.91 0 0 1 -4.16,1.91 3.11,3.11 0 0 1 -3.36,-3.070005 h 5.92 a 3.56,3.56 0 0 1 1.43,0.24 v -1.22 c 0,-4.07 -1.33,-6.31 -4.72,-6.31 -3.18,0 -5.6,2.17 -5.6,6.38 z" /><path d="m 86.9,54.340321 a 2.13,2.13 0 0 1 1.24,-0.43 c 0.63,0 1.91,0.43 3.31,0.43 3.44,0 5,-2.12 5,-4.24 a 3.52,3.52 0 0 0 -2.83,-3.430005 l -2.17,-0.62 c -1.12,-0.31 -1.5,-0.54 -1.5,-1.21 0,-0.67 0.63,-1.15 1.86,-1.15 a 4.3,4.3 0 0 1 3.82,2.51 v -4.6 a 1.42,1.42 0 0 1 -1.09,0.43 c -0.46,0 -1.76,-0.43 -3.07,-0.43 -2.51,0 -4.37,1.5 -4.37,3.64 0,1.91 1.25,3 3.11,3.46 l 1.62,0.4 c 1.41,0.36 1.77,0.81 1.77,1.670005 0,0.86 -0.94,1.47 -2.32,1.47 -1.38,0 -2.49,-0.4 -4.36,-2.520005 z" /><path d="m 71.55,51.580321 a 3.37,3.37 0 0 1 -1.11,2.5 h 5.23 a 3.38,3.38 0 0 1 -1.12,-2.5 V 37.240316 l -4.11,0.91 a 2.89,2.89 0 0 1 1.11,2.59 z" /><path d="m 61.13,48.030316 c 0,-2.64 1,-4.19 2.88,-4.19 1.88,0 2.51,1.36 2.51,4 0,3.000005 -1,4.210005 -2.78,4.210005 -2.18,0.09 -2.61,-2.330005 -2.61,-4.020005 z m -3.14,0.1 c 0,4.470005 2.58,6.210005 5.27,6.210005 a 4.47,4.47 0 0 0 3.17,-1.33 6.58,6.58 0 0 1 0.07,1 c 0,2.41 -1.74,2.91 -3.19,2.91 a 4.78,4.78 0 0 1 -4.21,-2.2 v 4.29 a 1.44,1.44 0 0 1 0.94,-0.29 33,33 0 0 0 3.65,0.29 c 4,0 5.83,-1.93 5.83,-5.84 v -8.450005 a 3.72,3.72 0 0 1 1.06,-2.86 h -3.15 a 4.79,4.79 0 0 0 -0.43,1.31 h -0.05 c -0.6,-1.38 -1.81,-1.57 -3.31,-1.57 -3.73,0 -5.61,2.76 -5.61,6.54 z" /><path d="m 50.03,46.790316 c 0,-1.76 0.71,-3.1 2.47,-3.1 1.6,0 2,1.17 2,3.1 z m -3,1.19 c 0,2.890005 0.77,6.360005 5.49,6.360005 2.61,0 5,-1.47 5,-4.29 a 5.91,5.91 0 0 1 -4.16,1.91 3.11,3.11 0 0 1 -3.37,-3.070005 h 5.93 a 3.56,3.56 0 0 1 1.43,0.24 v -1.22 c 0,-4.07 -1.33,-6.31 -4.72,-6.31 -3.17,0 -5.59,2.17 -5.59,6.38 z" /><path d="m 54.45,39.820316 c -0.14,-0.52 -2.53,-1.8 -3.53,-1.86 a 1.18,1.18 0 0 0 -1.21,1.39 c 0,0.49 0.53,0.84 1.64,1.19 a 18.87,18.87 0 0 0 2.49,0.79 c 0.29,-0.04 0.86,-1.09 0.61,-1.51 z" /><path d="m 37.86,40.860316 c 0,-0.55 0.46,-1 2,-1 2.29,0 3.19,0.76 3.19,2.38 0,1.81 -1.33,2.4 -4.19,2.4 h -1 z m -3.14,10.790005 a 2.72,2.72 0 0 1 -1.09,2.43 h 5.61 a 3.16,3.16 0 0 1 -1.38,-2.69 v -4.380005 h 1.36 c 2.66,0 3.29,0.66 3.55,3.660005 0.22,2.74 0.41,3.41 1.4,3.41 h 3.12 a 4.23,4.23 0 0 1 -1.38,-3.24 C 45.6,47.030316 44.73,46.390316 43.3,45.740316 a 3.67,3.67 0 0 0 2.88,-4 c 0,-1.95 -1.19,-4.28 -5.63,-4.28 -1.24,0 -4.11,0.14 -4.86,0.14 a 13.24,13.24 0 0 1 -2.21,-0.14 3,3 0 0 1 1.24,2.68 z" /><path d="m 239.6,64.580321 c 0.72,-0.64 4.11,-1.64 3.69,-6.89 a 4.36,4.36 0 0 0 -4.27,-4.55 c -3.35,0 -4.36,3.33 -4.36,4.81 a 35,35 0 0 0 0.44,4.87 13.2,13.2 0 0 1 -3.59,-2.82 14.06,14.06 0 0 1 -1.12,4.1 11.58,11.58 0 0 1 -7.41,-3.28 c -0.3,-8.68 5.82,-15.550005 13.15,-15.700005 8.31,-0.38 14.4,5.360005 14.33,14.000005 0.38,6.72 -2.58,9.85 -3.78,10.78 -3.81,0.14 -6.11,-2.07 -7.08,-5.32 z m 1.3,7.2 c 0.07,-0.08 0.19,-0.13 0.44,-0.13 a 2.4,2.4 0 0 1 1.07,0.4 c 0,0 -0.41,0 -0.48,0.29 -0.07,0.29 0.13,0.4 0.37,0.54 a 0.61,0.61 0 0 0 0.62,0 c 0.18,-0.17 0.09,-0.5 0.09,-0.5 a 3.05,3.05 0 0 1 0.74,0.87 0.5,0.5 0 0 1 -0.4,0.71 4,4 0 0 1 -1.13,0 2.18,2.18 0 0 1 -0.9,-0.53 2.43,2.43 0 0 1 -0.52,-1.14 0.76,0.76 0 0 1 0.1,-0.51 z m -20.83,2.81 a 5.39,5.39 0 0 0 -2.2,-6.86 c 2.41,-3.54 0.46,-7.75 -2,-11.48 2.5,2.17 8.37,8.75 14,8.8 a 15.31,15.31 0 0 1 -2.88,3.25 8.37,8.37 0 0 1 1.46,6.7 11.51,11.51 0 0 1 2.67,2.75 12.15,12.15 0 0 0 -7.34,4 c 0.04,-3.61 -2.33,-5.85 -3.71,-7.16 z m 9.67,0.08 c 0.18,-2.76 -0.05,-4.29 -1.39,-6.13 a 12.75,12.75 0 0 0 3.81,-6.58 9,9 0 0 0 3.62,2.46 7.58,7.58 0 0 1 0.84,-3 7.38,7.38 0 0 1 2.14,-2.29 c 0,0 -1.11,4 -0.09,6.33 1.02,2.33 1.56,3.22 2.9,4.28 a 7.14,7.14 0 0 0 3.44,1.31 1.84,1.84 0 0 1 1.27,1 1.69,1.69 0 0 1 0,1.25 1.25,1.25 0 0 1 -1,0.35 c -0.48,-0.06 -1.27,-1.08 -1.58,-1.42 a 4,4 0 0 0 -1.18,-0.79 6.89,6.89 0 0 0 -1.44,-0.47 0.88,0.88 0 0 0 -0.9,0.47 2.3,2.3 0 0 0 0,1.51 2.79,2.79 0 0 0 0.7,1.25 3.2,3.2 0 0 0 1.33,0.57 c 0.38,0.07 2.27,0.07 3.42,0.32 1.15,0.25 3,1.64 3.53,1.75 0.53,0.11 1.9,0.27 2.35,0.33 a 1.67,1.67 0 0 1 1.18,1.19 c 0,0.49 -0.47,2.11 -1.25,2.41 a 7,7 0 0 1 -4.06,-0.36 40.64,40.64 0 0 1 -3.7,-1.89 9.85,9.85 0 0 0 -3.35,-0.52 c -1,0.14 -2,0.47 -2.78,0.11 a 4.21,4.21 0 0 1 -1.79,-2 4.78,4.78 0 0 1 -0.51,-2.56 1.63,1.63 0 0 1 1.05,-1.11 c 0.42,-0.18 1.91,0.47 2.14,0.53 a 0.4,0.4 0 0 0 0.52,-0.25 0.65,0.65 0 0 0 -0.38,-0.67 c -0.22,-0.1 -1.86,-0.83 -2.47,-0.61 a 3.3,3.3 0 0 0 -1.81,1.79 4.5,4.5 0 0 0 0.49,3.13 5,5 0 0 0 2.66,2.91 13.92,13.92 0 0 0 -1.93,7 19.43,19.43 0 0 0 -5.78,-11.6 z m 10.19,12.47 c -1,-3.13 -2.15,-4.42 -2.73,-4.9 0.13,-0.68 1,-2.43 1.78,-2.76 0.5,0.2 3.85,6.2 4.19,9.52 a 5.67,5.67 0 0 1 -0.88,1.31 2.47,2.47 0 0 1 -1.81,1 c -0.59,-0.1 -0.84,-1.82 -0.84,-1.82 a 12.34,12.34 0 0 0 0.29,-2.35 z m 25.76,17.629999 a 6.22,6.22 0 0 1 -2.75,3.77 6.41,6.41 0 0 0 0.87,-3.62 7.08,7.08 0 0 0 -0.44,-2.25 15.41,15.41 0 0 0 -1.7,-2.999999 c -0.55,-1 -13.61,-12.5 -18.75,-17 -0.32,-0.26 -3,-3.65 -3,-3.65 a 2.06,2.06 0 0 1 1.18,-0.19 9.58,9.58 0 0 1 3.91,2.09 c 2.52,2 16.6,14.68 17.27,15.2 a 13.72,13.72 0 0 0 8.75,3.24 c 7.51,-0.37 9.76,-5.76 9.48,-9.46 3.06,2.07 5.38,5.84 5.26,9.45 -0.86,7.059999 -5.68,9.509999 -11,9.259999 a 16.13,16.13 0 0 1 -9.08,-3.8 z m -50.85,-4.6 c 7.17,-1.999999 9.48,-13.139999 1.37,-17.499999 l 4.38,-6 c 1.85,1.85 2.26,3.74 2.51,6.89 1.54,-1.51 4.61,-4.61 8.54,-5 a 13.35,13.35 0 0 1 2,4.35 c -8,9.17 -2.82,17.449999 1.22,20.739999 4.04,3.29 12.13,5 17.11,-5.799999 0,0 0.21,-1.91 -0.71,-2.69 l -6.83,-5.75 a 15.42,15.42 0 0 0 -2.24,-6 c 6.1,5.5 17.93,15.65 18.61,16.999999 1.93,1.8 2.22,7.9 -0.27,10.65 2.53,-0.22 4.65,-2.57 5.45,-4.32 2.64,2.39 7.11,3.17 9.24,3.18 4.63,-0.14 11.08,-1.75 11.78,-10.419999 -0.12,-5.44 -4.13,-10.16 -7.89,-11.28 0.79,7.08 -3.27,9.48 -7.41,9.69 -5.15,-0.09 -5.84,0.7 -24.95,-17 a 8.57,8.57 0 0 0 5.18,0.66 c 0.23,0.06 2.82,3.19 3.29,2.95 2.14,-4.52 -1.84,-14.14 -2.44,-14.93 2.91,1.87 6.88,6.24 7.83,8.43 a 13.32,13.32 0 0 1 15.46,-2.76 c -10.83,0.76 -14.5,10.19 -15.22,14.2 6,9.85 20.72,7.15 14.61,-4.11 8.87,0.34 14.06,8.42 13.77,13.81 0.25,8.779999 -5.8,12.949999 -13.33,13.229999 -5.78,-0.15 -7.81,-1.39 -9.19,-2.21 -1.24,1.61 -2.55,3.31 -6.76,3.6 -1.73,0.1 -4.08,-0.74 -4.91,-1.85 6.95,-1.62 5.11,-8.37 2.78,-10.45 -7.36,10.8 -15.59,14.44 -22.51,14.15 -9.44,-0.03 -18.68,-6.57 -20.47,-15.42 z" /><path d="m 485.52,45.320316 a 5.75,5.75 0 0 0 -9.95,0 5.74,5.74 0 0 0 2.1,7.840005 5.74,5.74 0 0 0 7.85,-7.840005 m -1.71,6.140005 a 4.63,4.63 0 0 1 -7.9,-3.270005 4.63,4.63 0 0 1 4.63,-4.64 4.63,4.63 0 0 1 3.27,7.910005 m -2,-2.600005 a 1.74,1.74 0 0 0 -0.52,-0.29 2.42,2.42 0 0 0 1.26,-0.65 1.73,1.73 0 0 0 -0.13,-2.33 2.51,2.51 0 0 0 -1.69,-0.47 h -2.74 v 6.140005 h 1.52 v -2.420005 a 0.76,0.76 0 0 1 0.19,0 0.85,0.85 0 0 1 0.6,0.34 13.53,13.53 0 0 1 1.18,2.100005 h 1.81 l -1,-1.780005 a 3.61,3.61 0 0 0 -0.49,-0.62 m -1.67,-1.16 h -0.67 v -1.53 h 0.72 a 1.45,1.45 0 0 1 0.89,0.21 0.7,0.7 0 0 1 0.26,0.56 0.66,0.66 0 0 1 -0.28,0.55 1.5,1.5 0 0 1 -0.92,0.21" /></g></svg>