<?xml version="1.0" encoding="UTF-8" standalone="no"?><svg xmlns:rdf="http://www.w3.org/1999/02/22-rdf-syntax-ns#" xmlns:svg="http://www.w3.org/2000/svg" xmlns="http://www.w3.org/2000/svg" width="1.14cm" height="1.14cm" viewBox="0 0 32.4 32.4" version="1.1" >  <g id="g860" transform="translate(-12.157571,-12.157571)" style="display:inline"><path id="path4" style="fill:#1d1d1b" d="m 37.62,19.07 a 9.68,9.68 0 0 0 -18.55,0 9.68,9.68 0 0 0 0,18.55 9.67,9.67 0 0 0 18.55,0 9.67,9.67 0 0 0 0,-18.55 z m 3.24,9.28 a 6,6 0 0 1 -2.94,5.15 9.57,9.57 0 0 0 -2.42,-5.15 9.64,9.64 0 0 0 2.42,-5.15 6,6 0 0 1 2.94,5.15 z m -8,-2.63 L 31,23.83 a 6.07,6.07 0 0 1 3.31,-1.45 6,6 0 0 1 -1.41,3.34 z m -2.6,2.63 -1.91,1.95 -1.94,-1.94 2,-1.95 z m -1.95,-7.16 a 9.71,9.71 0 0 0 -5.15,-2.42 6,6 0 0 1 10.3,0 9.64,9.64 0 0 0 -5.11,2.42 z m -4.51,4.53 a 6,6 0 0 1 -1.42,-3.34 5.93,5.93 0 0 1 3.34,1.42 z m 0,5.25 1.92,1.93 A 5.9,5.9 0 0 1 22.38,34.31 6,6 0 0 1 23.8,31 Z m 4.55,4.53 a 9.57,9.57 0 0 0 5.15,2.42 6,6 0 0 1 -10.3,0 9.64,9.64 0 0 0 5.15,-2.42 z M 32.9,31 A 5.9,5.9 0 0 1 34.31,34.34 6,6 0 0 1 31,32.89 Z M 21.19,28.35 a 9.64,9.64 0 0 0 -2.42,5.15 6,6 0 0 1 0,-10.3 9.71,9.71 0 0 0 2.42,5.15 z" /><path id="path6" style="fill:#bb2233" d="m 44.2,28.35 a 9.33,9.33 0 0 0 -6.86,-9 9.32,9.32 0 0 0 -18,0 9.32,9.32 0 0 0 0,18 9.31,9.31 0 0 0 18,0 9.34,9.34 0 0 0 6.86,-9 z m -18.3,0 2.44,-2.43 2.45,2.47 -2.43,2.42 z m 7,-2.07 -2.45,-2.45 A 6.3,6.3 0 0 1 34.67,22 6.4,6.4 0 0 1 32.92,26.24 Z m -9.15,4.18 2.47,2.47 A 6.24,6.24 0 0 1 22,34.67 6.43,6.43 0 0 1 23.77,30.42 Z M 26.2,23.8 23.75,26.25 A 6.3,6.3 0 0 1 22,22 a 6.41,6.41 0 0 1 4.22,1.76 z m 2.13,-2.09 a 9.27,9.27 0 0 0 -5.69,-2.6 6.31,6.31 0 0 1 11.38,0 9.27,9.27 0 0 0 -5.67,2.56 z M 19.06,34 a 6.31,6.31 0 0 1 0,-11.37 9.33,9.33 0 0 0 2.6,5.67 9.3,9.3 0 0 0 -2.6,5.7 z m 9.3,1 a 9.32,9.32 0 0 0 5.69,2.6 6.32,6.32 0 0 1 -11.39,0 9.28,9.28 0 0 0 5.7,-2.6 z m 6.31,-0.36 a 6.41,6.41 0 0 1 -4.2,-1.74 l 2.44,-2.43 a 6.31,6.31 0 0 1 1.76,4.17 z m 3,-12 a 6.32,6.32 0 0 1 0,11.38 9.29,9.29 0 0 0 -2.67,-5.67 9.34,9.34 0 0 0 2.63,-5.69 z" /></g><g id="g980" style="fill:none;stroke:#1d1d1b;stroke-width:0.34999999px;stroke-linecap:square"><path  d="m 9.672429,22.332429 a 6.42,6.42 0 0 1 -2.66,-0.63" id="path12" /><path  d="m 6.742429,10.532429 c 0,-0.22 0,-0.8 0,-1 a 9.3,9.3 0 0 1 0.32,-2.38" id="path14" /><path  d="m 10.412429,25.642429 c -0.21,0 -0.43,0 -0.64,0 a 10.09,10.09 0 0 1 -2.48,-0.28" id="path18" /><path  d="m 22.312429,22.582429 a 6.85,6.85 0 0 1 -0.58,2.76" id="path24" /><path  d="m 25.632429,21.892429 c 0,0.21 0,0.52 0,0.74 a 9.66,9.66 0 0 1 -0.27,2.42" id="path26" /><path  d="m 22.652429,10.002429 a 6.43,6.43 0 0 1 2.67,0.63" id="path28" /><path  d="m 21.842429,6.732429 c 0.21,0 0.47,0 0.69,0 a 10,10 0 0 1 2.47,0.27" id="path30" /><path  d="m 9.992429,9.782429 a 7.68,7.68 0 0 1 0.7,-2.9" id="path36" /><line x1="16.389999" y1="18.540001" x2="18.34" y2="20.540001" id="line8" /><line x1="9.4300003" y1="15.95" x2="11.38" y2="13.99" id="line10" /><line x1="15.98" y1="22.889999" x2="14.03" y2="20.940001" id="line16" /><line x1="22.93" y1="16.379999" x2="20.969999" y2="18.34" id="line20" /><line x1="16.309999" y1="9.3999996" x2="18.379999" y2="11.45" id="line22" /><line x1="16.049999" y1="13.87" x2="13.88" y2="11.71" id="line32" /><line x1="13.8" y1="16.34" x2="11.85" y2="18.299999" id="line34" /><line x1="18.6" y1="15.96" x2="20.559999" y2="14" id="line38" /></g></svg> 